SplineFontDB: 3.2
FontName: NewHeterodoxMono-Book
FullName: New Heterodox Mono Book
FamilyName: New Heterodox Mono
Weight: Book
Copyright: Copyright (C) 2006-2008 Alexey Kryukov <alexios@thessalonica.org.ru>\nCopyright (C) 2019 Hao Chi Kiang <hello@hckiang.com>
Version: 0.0.3
ItalicAngle: 0
UnderlinePosition: -198
UnderlineWidth: 40
Ascent: 762
Descent: 238
InvalidEm: 0
sfntRevision: 0x00020000
LayerCount: 2
Layer: 0 0 "Back" 1
Layer: 1 0 "Fore" 0
XUID: [1021 903 24678482 131528]
StyleMap: 0x0040
FSType: 0
OS2Version: 4
OS2_WeightWidthSlopeOnly: 0
OS2_UseTypoMetrics: 1
CreationTime: 1222415241
ModificationTime: 1645098190
PfmFamily: 49
TTFWeight: 400
TTFWidth: 5
LineGap: 246
VLineGap: 0
Panose: 2 4 5 9 5 5 5 2 3 3
OS2TypoAscent: 820
OS2TypoAOffset: 0
OS2TypoDescent: -304
OS2TypoDOffset: 0
OS2TypoLinegap: 246
OS2WinAscent: 952
OS2WinAOffset: 0
OS2WinDescent: 294
OS2WinDOffset: 0
HheadAscent: 820
HheadAOffset: 0
HheadDescent: -304
HheadDOffset: 0
OS2SubXSize: 640
OS2SubYSize: 660
OS2SubXOff: 0
OS2SubYOff: 480
OS2SupXSize: 640
OS2SupYSize: 660
OS2SupXOff: 0
OS2SupYOff: 0
OS2StrikeYSize: 40
OS2StrikeYPos: 212
OS2FamilyClass: 768
OS2Vendor: 'PfEd'
OS2CodePages: 2000009f.00000000
OS2UnicodeRanges: e0000aff.520120ff.02000000.00000000
MarkAttachClasses: 1
DEI: 91125
TtTable: prep
PUSHW_1
 511
SCANCTRL
PUSHB_1
 1
SCANTYPE
SVTCA[y-axis]
MPPEM
PUSHB_1
 8
LT
IF
PUSHB_2
 1
 1
INSTCTRL
EIF
PUSHB_2
 70
 6
CALL
IF
POP
PUSHB_1
 16
EIF
MPPEM
PUSHB_1
 20
GT
IF
POP
PUSHB_1
 128
EIF
SCVTCI
PUSHB_1
 6
CALL
NOT
IF
SVTCA[y-axis]
PUSHB_1
 7
DUP
RCVT
PUSHB_1
 3
CALL
WCVTP
PUSHB_1
 8
DUP
RCVT
PUSHB_3
 7
 143
 2
CALL
PUSHB_1
 3
CALL
WCVTP
PUSHB_1
 9
DUP
RCVT
PUSHB_3
 8
 94
 2
CALL
PUSHB_1
 3
CALL
WCVTP
PUSHB_1
 10
DUP
RCVT
PUSHB_3
 9
 56
 2
CALL
PUSHB_1
 3
CALL
WCVTP
PUSHB_1
 11
DUP
RCVT
PUSHB_3
 10
 50
 2
CALL
PUSHB_1
 3
CALL
WCVTP
SVTCA[x-axis]
PUSHB_1
 12
DUP
RCVT
PUSHB_1
 3
CALL
WCVTP
PUSHB_1
 13
DUP
RCVT
PUSHB_3
 12
 77
 2
CALL
PUSHB_2
 3
 70
SROUND
CALL
WCVTP
PUSHB_1
 14
DUP
RCVT

StartChar: .notdef
Encoding: 65536 -1 0
Width: 566
Flags: W
HStem: 0 32<121.53 444.47> 682 32<121.53 444.47>
VStem: 75 38<38.1992 675.801> 453 38<38.1992 675.801>
LayerCount: 2
Fore
SplineSet
453 80 m 6
 453 634 l 6
 453 666 438 682 409 682 c 6
 157 682 l 6
 128 682 113 666 113 634 c 6
 113 80 l 6
 113 48 128 32 157 32 c 6
 409 32 l 6
 438 32 453 48 453 80 c 6
75 0 m 5
 75 714 l 5
 491 714 l 5
 491 0 l 5
 75 0 l 5
EndSplineSet
Validated: 1
EndChar

StartChar: exclam
Encoding: 33 33 4
Width: 566
GlyphClass: 2
Flags: W
HStem: -12 144<222.658 325.342> 694 20G<259 307>
VStem: 202 144<8.65845 111.342> 211 144<504.018 699.217>
LayerCount: 2
Fore
SplineSet
285 176 m 1xd0
 261 176 l 1
 245 376 l 2
 243 402 237 445 227 504 c 0
 217 563 211 609 211 642 c 0
 211 690 235 714 283 714 c 256
 331 714 355 690 355 642 c 0
 355 609 347 563 333 504 c 0
 319 445 310 402 307 376 c 2
 285 176 l 1xd0
274 -12 m 260
 253 -12 236 -6 222 8 c 4
 208 22 202 39 202 60 c 260
 202 81 208 98 222 112 c 4
 236 126 253 132 274 132 c 260
 295 132 312 126 326 112 c 4
 340 98 346 81 346 60 c 260xe0
 346 39 340 22 326 8 c 4
 312 -6 295 -12 274 -12 c 260
EndSplineSet
Validated: 1
EndChar

StartChar: numbersign
Encoding: 35 35 6
Width: 566
GlyphClass: 2
Flags: W
HStem: 0 21G<107 161.212 297 351.212> 193 52<50 137 196 327 386 519> 447 52<48 177 236 367 426 519>
DStem2: 107 0 158 0 0.154553 0.987984<7.88221 195.318 255.811 452.448 512.942 692.319> 297 0 348 0 0.154553 0.987984<7.88221 195.318 255.811 452.448 512.942 692.319>
LayerCount: 2
Fore
SplineSet
214 684 m 1
 265 684 l 1
 236 499 l 1
 375 499 l 1
 404 684 l 1
 455 684 l 1
 426 499 l 1
 519 499 l 1
 519 447 l 1
 418 447 l 1
 386 245 l 1
 519 245 l 1
 519 193 l 1
 379 193 l 1
 348 0 l 1
 297 0 l 1
 327 193 l 1
 189 193 l 1
 158 0 l 1
 107 0 l 1
 137 193 l 1
 50 193 l 1
 50 245 l 1
 145 245 l 1
 177 447 l 1
 48 447 l 1
 48 499 l 1
 185 499 l 1
 214 684 l 1
228 447 m 1
 196 245 l 1
 335 245 l 1
 367 447 l 1
 228 447 l 1
EndSplineSet
Validated: 1
EndChar

StartChar: dollar
Encoding: 36 36 7
Width: 566
GlyphClass: 2
Flags: W
HStem: -16 38<186.053 237 272 308> 662 38<272 308 343 388.413>
VStem: 65 67<81.0004 177.5> 91 52<470.721 603.489> 237 35<-84 -15 27 317 426 654 698 758> 308 35<-84 -15 29 286 402 657 699 758> 444 57<533.374 609.649> 451 48<92.6362 233.517>
LayerCount: 2
Fore
SplineSet
294 -16 m 0xcd
 286 -16 279 -16 272 -15 c 1
 272 -84 l 1
 237 -84 l 1
 237 -11 l 1
 183 -2 141 19 111 49 c 0
 81 79 65 119 65 166 c 0
 65 189 73 209 90 225 c 0
 103 237 119 243 137 243 c 0
 150 243 160 239 168 231 c 0
 176 223 181 212 181 199 c 0
 181 188 179 178 174 170 c 0
 168 159 157 147 144 134 c 0
 136 126 132 116 132 102 c 0xed
 132 85 141 69 159 55 c 0
 177 42.3544921875 203 32.4189453125 237 27 c 1
 237 333 l 1
 231 335 l 1
 138 371 91 432 91 518 c 0
 91 560 104 596 129 628 c 0
 154 660 190 681 237 692 c 1
 237 758 l 1
 272 758 l 1
 272 698 l 1
 285 700 293 700 294 700 c 0
 298 700 303 700 308 699 c 1
 308 758 l 1
 343 758 l 1
 343 695 l 1
 393 686 431 666 459 636 c 0
 487 606 501 572 501 535 c 0
 501 505 496 482 486 467 c 0
 475 450 459 441 438 441 c 0
 423 441 411 446 403 455 c 0
 397 462 394 471 394 480 c 0
 394 493 398 504 406 516 c 0
 410 521 416 528 423 534 c 0
 430 540 434 545 436 548 c 0
 441 556 444 566 444 579 c 0xde
 444 594 436 609 419 625 c 0
 402 639.62890625 376 650.599609375 343 657 c 1
 343 390 l 1
 364 379 l 2
 408 355 442 327 464 296 c 0
 488 263 499 227 499 187 c 0
 499 139 485 97 458 61 c 0
 431 25 393 2 343 -9 c 1
 343 -84 l 1
 308 -84 l 1
 308 -15 l 1
 303 -16 298 -16 294 -16 c 0xcd
272 317 m 1
 272 23 l 1
 279 22 286 22 294 22 c 0
 298 22 303 22 308 23 c 1
 308 303 l 1
 272 317 l 1
272 415 m 1
 308 402 l 1
 308 661 l 1
 303 662 298 662 294 662 c 0
 293 662 285 662 272 660 c 1
 272 415 l 1
143 538 m 0xdc
 143 510 149 488 161 472 c 0
 175 453 199 439 231 428 c 2
 237 426 l 1
 237 654 l 1
 205 645.57421875 181 630.595703125 166 610 c 0
 151 588 143 564 143 538 c 0xdc
451 157 m 0xcd
 451 191 444 217 430 234 c 0
 416 251 393 266 363 278 c 2
 343 286 l 1
 343 29 l 1
 378 37.470703125 404 53.470703125 423 77 c 0
 442 102 451 129 451 157 c 0xcd
EndSplineSet
Validated: 1
EndChar

StartChar: percent
Encoding: 37 37 8
Width: 566
GlyphClass: 3
LigCaretCntFixed: 1
Flags: W
HStem: -16 22<390.538 434.296> 320 23<389.959 434.9> 352 23<129.959 174.9> 690 22<130.538 174.296>
VStem: 33 69<412.023 651.198> 204 69<412.023 651.198> 293 69<42.9761 282.516> 464 69<42.9761 282.516>
DStem2: 33 -18 82 -18 0.534744 0.845014<26.2025 850.874>
LayerCount: 2
Fore
SplineSet
152 375 m 0
 187 375 204 428 204 532 c 256
 204 638 187 690 152 690 c 0
 119 690 102 638 102 532 c 256
 102 428 119 375 152 375 c 0
152 352 m 256
 73 352 33 412 33 531 c 256
 33 652 73 712 152 712 c 256
 233 712 273 652 273 531 c 256
 273 412 233 352 152 352 c 256
488 701 m 1
 535 701 l 1
 82 -18 l 5
 33 -18 l 1
 488 701 l 1
412 6 m 0
 447 6 464 58 464 162 c 256
 464 267 447 320 412 320 c 0
 379 320 362 267 362 162 c 256
 362 58 379 6 412 6 c 0
412 -16 m 256
 333 -16 293 43 293 162 c 256
 293 282 333 343 412 343 c 256
 493 343 533 282 533 162 c 256
 533 43 493 -16 412 -16 c 256
EndSplineSet
Validated: 1
LCarets2: 2 320 540
EndChar

StartChar: ampersand
Encoding: 38 38 9
Width: 566
GlyphClass: 2
Flags: W
HStem: -18 48<456.553 516.965> -18 37<185.08 296.483> 365 35<393 443.763 505.03 552> 665 38<241.382 317.947>
VStem: 32 102<73.0107 232.998> 166 51<469.509 637.102> 336 32<507.598 643.613>
DStem2: 256 436 214 369 0.449503 -0.893279<-106.337 13.8659 39.1804 40.9706 75.4048 315.734 332.759 361.645> 214 369 229 338 0.851658 0.524097<-86.2878 -3.47215> 398 154 413 124 0.396379 0.918087<0 163.641>
LayerCount: 2
Fore
SplineSet
32 145 m 0x7e
 32 214 63 283 188 353 c 2
 214 369 l 1
 206 385 l 2
 180 441 166 489 166 530 c 0
 166 609.89453125 197.938476562 703 280 703 c 0
 352.860351562 703 368 641.212890625 368 581 c 0
 368 492.209960938 326.052734375 447.225585938 277 395 c 1
 398 154 l 1
 405.77734375 170.944335938 418.5 201.25 436 248 c 4
 448.194335938 280.577148438 452 307 452 326 c 0
 452 338 449 347 444 354 c 0
 439 361 431 365 424 365 c 2
 393 365 l 1
 393 400 l 1
 552 400 l 1
 552 365 l 1
 521 365 l 2
 514 365 502 346 485 309 c 1
 448 204 423 143 413 124 c 1
 429 92 444 68 455 53 c 0
 466 38 477 30 488 30 c 0
 508 30 524 41 535 65 c 1
 551 58 l 1
 529 8 502 -18 471 -18 c 0xbe
 438 -18 405 10 371 66 c 1
 326 10 278 -18 226 -18 c 0
 97 -18 32 36 32 145 c 0x7e
134 153 m 0
 134 90.337890625 171 19 238 19 c 0x7e
 277 19 316 42.35546875 354 90 c 1
 342 113 l 1
 229 338 l 1
 218 331 l 2
 154 290 134 226 134 153 c 0
217 560 m 0
 217 523 230 481 256 436 c 2
 263 424 l 1
 298.366210938 461.892578125 336 510.861328125 336 585 c 0
 336 623.685546875 319.237304688 665 281 665 c 0
 232.594726562 665 217 611.922851562 217 560 c 0
EndSplineSet
Validated: 1
EndChar

StartChar: quotesingle
Encoding: 39 39 10
Width: 566
GlyphClass: 2
Flags: W
HStem: 426 304<264.189 291.907>
VStem: 244 78<506.005 726.364>
LayerCount: 2
Fore
SplineSet
284 730 m 256
 310 730 322 713 322 677 c 0
 322 613.56870348 296.783110957 504.005776006 290 426 c 1
 266 426 l 1
 258.824431232 508.519040832 244 594.471378099 244 677 c 4
 244 713 258 730 284 730 c 256
EndSplineSet
Validated: 1
EndChar

StartChar: parenleft
Encoding: 40 40 11
Width: 566
GlyphClass: 2
Flags: W
HStem: 710 20G<337.5 393>
VStem: 168 54<98.0755 433.925>
LayerCount: 2
Fore
SplineSet
168 266 m 256
 168 360 187 448 223 528 c 0
 259 608 307 675 368 730 c 1
 398 706 l 1
 281 583 222 436 222 266 c 256
 222 96 281 -51 398 -174 c 1
 368 -198 l 1
 307 -143 259 -76 223 4 c 0
 187 84 168 172 168 266 c 256
EndSplineSet
Validated: 1
EndChar

StartChar: parenright
Encoding: 41 41 12
Width: 566
GlyphClass: 2
Flags: W
HStem: 710 20G<173 228.5>
VStem: 344 54<98.0755 433.925>
LayerCount: 2
Fore
SplineSet
398 266 m 256
 398 172 379 84 343 4 c 0
 307 -76 259 -143 198 -198 c 1
 168 -174 l 1
 285 -51 344 96 344 266 c 256
 344 436 285 583 168 706 c 1
 198 730 l 1
 259 675 307 608 343 528 c 0
 379 448 398 360 398 266 c 256
EndSplineSet
Validated: 1
EndChar

StartChar: asterisk
Encoding: 42 42 13
Width: 566
GlyphClass: 2
Flags: W
HStem: 196 99<107.644 173.34 393.638 458.356> 295 59<246.878 270.999 297.002 319.998> 354 99<107.644 173.34 393.638 458.356>
VStem: 239 88<124.377 217.357 431.643 524.623> 246 74<312.078 336.922> 271 26<210.3 294.996 354.004 438.7>
LayerCount: 2
Fore
SplineSet
283 537 m 256x50
 297 537 307 533 315 525 c 0
 323 517 327 506 327 493 c 0x50
 327 483 322 469 313 449 c 0
 302 425 297 398 297 369 c 0
 297 359 300 354 305 354 c 0x44
 308 354 314 356 320 360 c 0
 344 375 363 393 377 412 c 0
 397 439 416 453 434 453 c 0
 446 453 455 448 462 439 c 0
 469 430 472 420 472 409 c 0
 472 379 450 361 405 354 c 0
 380 352 356 346 331 337 c 1
 326 332 l 2
 322 330 320 327 320 324 c 256
 320 321 322 319 326 317 c 2
 331 312 l 1
 356 303 380 297 405 295 c 0
 450 288 472 270 472 240 c 0
 472 229 469 219 462 210 c 0
 455 201 446 196 434 196 c 0
 416 196 397 210 377 237 c 0
 363 256 344 274 320 289 c 0xa8
 314 293 308 295 305 295 c 0
 300 295 297 290 297 280 c 0x44
 297 251 302 224 313 200 c 0
 322 180 327 166 327 156 c 0
 327 143 323 132 315 124 c 0
 307 116 297 112 283 112 c 256
 269 112 259 116 251 124 c 0
 243 132 239 143 239 156 c 0x50
 239 166 244 180 254 200 c 0
 265 224 271 251 271 280 c 0
 271 290 269 295 263 295 c 0x44
 260 295 254 293 248 289 c 0
 224 274 204 256 190 237 c 0
 170 210 151 196 132 196 c 0
 120 196 111 201 104 210 c 0
 97 219 94 229 94 240 c 0
 94 270 116 288 161 295 c 0
 186 297 210 303 235 312 c 1
 240 317 l 2
 244 319 246 321 246 324 c 256
 246 327 244 330 240 332 c 2
 235 337 l 1
 210 346 186 352 161 354 c 0
 116 361 94 379 94 409 c 0
 94 420 97 430 104 439 c 0
 111 448 120 453 132 453 c 0xa8
 151 453 170 439 190 412 c 0
 204 393 224 375 248 360 c 0
 254 356 260 354 263 354 c 0
 269 354 271 359 271 369 c 0x44
 271 398 265 425 254 449 c 0
 244 469 239 483 239 493 c 0
 239 506 243 517 251 525 c 0
 259 533 269 537 283 537 c 256x50
EndSplineSet
Validated: 1
EndChar

StartChar: plus
Encoding: 43 43 14
Width: 566
GlyphClass: 2
Flags: W
HStem: 250 52<31 257 309 535>
VStem: 257 52<24 250 302 539>
LayerCount: 2
Fore
SplineSet
31 250 m 1
 31 302 l 1
 257 302 l 1
 257 539 l 1
 309 539 l 1
 309 302 l 1
 535 302 l 1
 535 250 l 1
 309 250 l 1
 309 24 l 1
 257 24 l 1
 257 250 l 1
 31 250 l 1
EndSplineSet
Validated: 1
EndChar

StartChar: comma
Encoding: 44 44 15
Width: 566
GlyphClass: 2
Flags: W
HStem: -13 139<225.917 303.647>
VStem: 306 52<-95.8568 43.5>
DStem2: 202 -202 223 -233 0.8 0.6<0 114.658>
LayerCount: 2
Fore
SplineSet
208 53 m 4
 208 93 234 126 272 126 c 4
 330 126 358 75 358 12 c 4
 358 -103 292 -188 227 -230 c 6
 223 -233 l 5
 202 -202 l 5
 206 -199 l 6
 254 -166 306 -110 306 -42 c 4
 306 -20 293 -13 262 -13 c 4
 228 -13 208 19 208 53 c 4
EndSplineSet
Validated: 1
EndChar

StartChar: hyphen
Encoding: 45 45 16
Width: 566
GlyphClass: 2
Flags: W
HStem: 250 52<23 543>
LayerCount: 2
Fore
SplineSet
23 250 m 5
 23 302 l 5
 543 302 l 5
 543 250 l 5
 23 250 l 5
EndSplineSet
Validated: 1
EndChar

StartChar: period
Encoding: 46 46 17
Width: 566
GlyphClass: 2
Flags: W
HStem: -12 144<231.658 334.342>
VStem: 211 144<8.65845 111.342>
LayerCount: 2
Fore
SplineSet
283 -12 m 260
 262 -12 245 -6 231 8 c 4
 217 22 211 39 211 60 c 260
 211 81 217 98 231 112 c 4
 245 126 262 132 283 132 c 260
 304 132 321 126 335 112 c 4
 349 98 355 81 355 60 c 260
 355 39 349 22 335 8 c 4
 321 -6 304 -12 283 -12 c 260
EndSplineSet
Validated: 1
EndChar

StartChar: slash
Encoding: 47 47 18
Width: 566
GlyphClass: 2
Flags: W
HStem: 710 20G<400.078 457.5>
DStem2: 108.5 -198 159.5 -198 0.305743 0.952114<15.5929 974.673>
LayerCount: 2
Fore
SplineSet
159.5 -198 m 5
 108.5 -198 l 1
 406.5 730 l 1
 457.5 730 l 5
 159.5 -198 l 5
EndSplineSet
Validated: 1
EndChar

StartChar: zero
Encoding: 48 48 19
Width: 566
GlyphClass: 2
Flags: W
HStem: -16 35<225.122 340.329> 291 93<243.099 322.56> 664 36<224.393 339.304>
VStem: 40 102<170.073 512.044> 236 94<298.394 376.901> 424 102<171.319 513.406>
CounterMasks: 1 1c
LayerCount: 2
Fore
SplineSet
282 -16 m 0
 167 -16 88 75 62 170 c 0
 47 224 40 281 40 342 c 0
 40 475 69 584 144 648 c 0
 185 683 231 700 282 700 c 0
 397 700 477 609 504 514 c 0
 519 460 526 403 526 342 c 0
 526 209 497 100 422 36 c 0
 381 1 333 -16 282 -16 c 0
282 19 m 0
 334 19 374 57 390 95 c 0
 418 160 424 249 424 341 c 0
 424 434 418 522 390 588 c 0
 374 626 334 664 282 664 c 0
 230 664 192 626 176 588 c 0
 148 523 142 433 142 341 c 0
 142 249 148 161 176 95 c 0
 192 57 230 19 282 19 c 0
330 338 m 0
 330 311 309 291 282 291 c 0
 256 291 236 312 236 338 c 0
 236 364 256 384 282 384 c 0
 309 384 330 365 330 338 c 0
EndSplineSet
Validated: 1
EndChar

StartChar: one
Encoding: 49 49 20
Width: 566
GlyphClass: 2
Flags: W
HStem: 0 38<67 249.828 335.663 499> 547 38<67 242.011> 665 20G<297 335>
VStem: 251 84<40.8717 547> 300 35<643.132 685>
LayerCount: 2
Fore
SplineSet
67 0 m 1xf0
 67 38 l 1
 203 38 l 2
 235 38 251 47 251 64 c 2
 251 547 l 1xf0
 67 547 l 1
 67 585 l 1
 166 585 l 2
 203 585 234 595 257 614 c 0
 280 633.271428571 294 657.614285714 300 685 c 5
 335 685 l 5xe8
 335 64 l 2
 335 47 344 38 363 38 c 2
 499 38 l 1
 499 0 l 1
 67 0 l 1xf0
EndSplineSet
Validated: 524289
EndChar

StartChar: two
Encoding: 50 50 21
Width: 566
GlyphClass: 2
Flags: W
HStem: 0 95<147.007 439.91> 390 123<114.383 193.03> 661 39<171.934 314.605>
VStem: 63 45<494.5 601.693> 75 72<95.6988 130.104> 382 102<424.465 594.207> 470 24<153.519 211>
DStem2: 190 229 234 211 0.786318 0.617822<-102.268 217.477>
LayerCount: 2
Fore
SplineSet
479 0 m 1xea
 75 0 l 1xea
 75 113.206054688 90.849609375 150.505859375 190 229 c 2
 286 305 l 2
 350 360 382 423 382 498 c 0
 382 550 369 591 344 619 c 0
 319 647 283 661 236 661 c 0
 178.131835938 661 108 615.5625 108 561 c 0
 108 534 122 517 149 513 c 0
 170 509 186 501 196 488 c 0
 206 475 212 460 212 442 c 0
 212 427 207 415 198 405 c 0
 189 395 176 390 160 390 c 0
 132 390 109 401 91 424 c 0
 73 447 63 476 63 513 c 0
 63 623.966796875 146.06640625 700 269 700 c 4
 412 700 484 634 484 501 c 0xf4
 484 426.602539062 426.87109375 363.96875 332 288 c 2
 234 211 l 2
 181.159179688 169.481445312 147 141.81640625 147 117 c 0
 147 103 157 95 179 95 c 2
 376 95 l 2
 404 95 424 100 435 111 c 0
 457.083007812 133.083007812 464.327148438 173.334960938 470 211 c 1
 494 211 l 1
 479 0 l 1xea
EndSplineSet
Validated: 1
EndChar

StartChar: three
Encoding: 51 51 22
Width: 566
GlyphClass: 2
Flags: W
HStem: -16 38<137.078 316.862> 80 128<121.172 185.94> 323 60<129.257 264.491> 344 30<198.139 315.056> 662 38<165.319 309.676>
VStem: 58 62<45.5825 143.5> 74 70<534 628.73> 366 110<447.194 605.677> 386 122<96.8017 263.457>
LayerCount: 2
Fore
SplineSet
148 475 m 0xdb
 108 475 74 514 74 554 c 0
 74 651 157 700 266 700 c 0
 382 700 476 636 476 524 c 0xdb
 476 483 462 449 432 421 c 0
 402 393 370 376 334 369 c 1
 334 360 l 1
 375 354 414 335 452 303 c 0
 490 271 508 232 508 185 c 0
 508 124 484 76 434 39 c 0
 384 2 324 -16 252 -16 c 0
 132 -16 58 24 58 120 c 0
 58 167 89 208 136 208 c 0
 177 208 200 182 200 141 c 0
 200 111 185 80 156 80 c 0
 133 80 120 76 120 67 c 0
 120 37 162 22 246 22 c 0
 311 22 358 62 374 108 c 0
 382 132 386 157 386 186 c 0
 386 239 373 279 350 305 c 0
 327 331 299 344 266 344 c 0xdc80
 234 344 190 323 166 323 c 0
 146 323 128 333 128 353 c 0
 128 373 141 383 166 383 c 0xec80
 177 383 194 381 214 377 c 0
 227 375 245 374 268 374 c 0
 300 374 323 388 340 417 c 0
 357 446 366 479 366 516 c 0
 366 593 327 662 250 662 c 0
 193 662 144 647 144 604 c 0
 144 590 153 578 170 570 c 0
 194 560 204 544 204 522 c 0
 204 491 181 475 148 475 c 0xdb
EndSplineSet
Validated: 1
EndChar

StartChar: four
Encoding: 52 52 23
Width: 566
GlyphClass: 2
Flags: W
HStem: 0 38<172.5 316.605 402.034 525.5> 192 38<93.5 317.5 401.5 522.5>
VStem: 317.5 84<40.3743 192 230 561>
DStem2: 41.5 227 93.5 230 0.561325 0.827595<31.6717 431.343>
LayerCount: 2
Fore
SplineSet
317.5 561 m 1
 93.5 230 l 1
 317.5 230 l 1
 317.5 561 l 1
172.5 0 m 1
 172.5 38 l 1
 270.5 38 l 2
 302.5 38 317.5 46 317.5 63 c 2
 317.5 192 l 5
 41.5 192 l 5
 41.5 227 l 1
 353.5 687 l 1
 401.5 687 l 1
 401.5 230 l 1
 522.5 230 l 1
 522.5 192 l 5
 401.5 192 l 5
 401.5 63 l 2
 401.5 46 410.5 38 428.5 38 c 2
 525.5 38 l 1
 525.5 0 l 1
 172.5 0 l 1
EndSplineSet
Validated: 1
EndChar

StartChar: five
Encoding: 53 53 24
Width: 566
GlyphClass: 2
Flags: W
HStem: -16 38<163.722 326.454> 429 39<197.277 335.354> 570 88<159.192 336.11> 680 20G<99 136 406.5 445>
VStem: 56 84<58.6899 150.786> 99 39<312.094 382.13 408 593> 408 102<131.442 347.388>
LayerCount: 2
Fore
SplineSet
279 468 m 0xf6
 420 468 510 381 510 242 c 4
 510 76.4102214711 393.317867276 -16 249 -16 c 0
 147 -16 56 36 56 131 c 0
 56 187 91 228 143 228 c 0
 180 228 206 206 206 171 c 0
 206 147 194 130 170 119 c 0
 150 110 140 98 140 86 c 0xfa
 140 43.0149253731 177 22 250 22 c 0
 355 22 408 95.9910313901 408 242 c 0
 408 367 357 429 254 429 c 0
 202 429 138 387 138 336 c 0
 138 320 130 312 116 312 c 0
 104 312 99 320 99 337 c 2
 99 681 l 1
 123 700 l 1
 149 678 214 658 262 658 c 0
 326 658 382 672 431 700 c 1
 445 685 l 1
 405 626 334 570 242 570 c 0
 199 570 164 578 138 593 c 1
 138 408 l 1
 144 406 l 1
 179 447 224 468 279 468 c 0xf6
EndSplineSet
Validated: 1
EndChar

StartChar: six
Encoding: 54 54 25
Width: 566
GlyphClass: 2
Flags: W
HStem: -16 38<233.49 347.088> 390 40<242.782 355.935> 662 38<261.378 394.776>
VStem: 63 102<344 481.842> 406 102<121.128 322.522> 406 67<554 642.286>
LayerCount: 2
Fore
SplineSet
172 341 m 1xf4
 193 383 248 430 306 430 c 0
 430.514648438 430 508 343.328125 508 220 c 0xf8
 508 97.6884765625 416.62890625 -16 290 -16 c 0
 130 -16 63 141 63 314 c 0
 63 528.317382812 145.737304688 700 323 700 c 0
 404 700 473 655 473 573 c 0
 473 535 445 501 404 501 c 0
 377 501 358 517 358 547 c 0
 358 567 376 583 390 593 c 0
 401 601 406 611 406 621 c 0
 406 651.413085938 363.194335938 662 323 662 c 4
 208.59375 662 165 514.61328125 165 388 c 2
 165 344 l 1
 172 341 l 1xf4
178 206 m 0
 178 113.5078125 202 22 290 22 c 0
 377.047851562 22 406 119.368164062 406 206 c 0
 406 296 386 390 302 390 c 0
 219 390 178 298 178 206 c 0
EndSplineSet
Validated: 1
EndChar

StartChar: seven
Encoding: 55 55 26
Width: 566
GlyphClass: 2
Flags: W
HStem: -16 21G<249.5 301> 466 21G<70 98.2105> 589 95<125.723 443.871>
VStem: 70 24<466 499.25> 186 137<67.4831 238.5> 444 52<513.305 588.15>
DStem2: 301 326 367 349 0.613452 0.789732<-19.2718 246.384>
LayerCount: 2
Fore
SplineSet
278 -16 m 0
 221 -16 186 21 186 78 c 0
 186 181 260 256 301 326 c 1
 388 438 l 2
 425 486 444 528 444 564 c 0
 444 581 433 589 411 589 c 2
 190 589 l 2
 135 589 114 567 106 523 c 1
 94 466 l 1
 70 466 l 1
 85 684 l 1
 496 684 l 1
 496 561 487 514 428 433 c 2
 367 349 l 1
 334 300 323 255 323 222 c 0
 323 194 325 170 330 149 c 2
 337 114 l 2
 343 88 346 66 346 46 c 0
 346 5 324 -16 278 -16 c 0
EndSplineSet
Validated: 1
EndChar

StartChar: eight
Encoding: 56 56 27
Width: 566
GlyphClass: 2
Flags: W
HStem: -16 38<195.948 369.184> 662 38<193.691 355.924>
VStem: 38 80<86.6599 254.352> 46 86<478.288 592.537> 424 70<459.744 600.894> 438 90<113.614 229.223>
DStem2: 216 438 178 339 0.933746 -0.357936<-73.5496 -0.0466873 10.8803 153.67 169.008 270.019>
LayerCount: 2
Fore
SplineSet
278 662 m 0xd8
 237 662 202 652 174 632 c 0
 146 610 132 580 132 543 c 0
 132 516 138 495 152 479 c 0
 166 463 187 449 216 438 c 2
 346 389 l 1
 399 417 424 462 424 525 c 0
 424 565 410 598 382 625 c 0
 354 650 318 662 278 662 c 0xd8
494 532 m 0
 494 456 430 406 374 382 c 1
 374 378 l 1
 396 369 l 1
 484 336 528 285 528 215 c 0
 528 150 506 94 460 50 c 0
 414 6 351 -16 270 -16 c 0
 149 -16 38 52 38 170 c 0xe4
 38 218 52 255 82 282 c 0
 112 309 144 326 178 335 c 1
 178 339 l 1
 168 343 l 1
 100 369 46 424 46 512 c 0
 46 566 69 610 116 646 c 0
 163 682 217 700 276 700 c 0
 346 700 398 683 436 650 c 0
 474 617 494 577 494 532 c 0
282 22 m 0
 319 22 349 29 374 43 c 0
 399 59 415 78 424 97 c 0xe8
 433 116 438 134 438 153 c 0
 438 189 431 216 414 233 c 0
 397 250 374 265 342 277 c 2
 206 328 l 1
 147 305 118 253 118 171 c 0
 118 119 135 81 168 56 c 0
 201 33 238 22 282 22 c 0
EndSplineSet
Validated: 1
EndChar

StartChar: nine
Encoding: 57 57 28
Width: 566
GlyphClass: 2
Flags: W
HStem: -16 35<178.592 304.611> 254 40<210.065 323.218> 662 38<223.406 331.361>
VStem: 58 102<361.478 564.559> 93 67<41.4105 130> 401 102<196.589 340>
LayerCount: 2
Fore
SplineSet
394 343 m 1xec
 373 301 318 254 260 254 c 0
 135.485351562 254 58 340.671875 58 464 c 4xf4
 58 586.311523438 149.37109375 700 276 700 c 0
 428 700 503 590 503 370 c 0
 503 242 476 145 422 78 c 0
 371 15 312 -16 243 -16 c 0
 162 -16 93 29 93 111 c 0
 93 149 121 183 162 183 c 0
 189 183 208 167 208 137 c 0
 208 117 190 101 176 91 c 0
 165 83 160 73 160 63 c 0
 160 51 167 41 181 32 c 0
 195 23 215 19 243 19 c 0
 297 19 338 50 366 110 c 0
 377 135 386 165 392 202 c 0
 398 239 401 271 401 296 c 2
 401 340 l 1
 394 343 l 1xec
388 478 m 0
 388 570.4921875 364 662 276 662 c 0
 219 662 180 607.630859375 169 562 c 0
 163 536 160 508 160 478 c 0
 160 388 180 294 264 294 c 0
 347 294 388 386 388 478 c 0
EndSplineSet
Validated: 1
EndChar

StartChar: uni037E
Encoding: 894 894 30
AltUni2: 00003b.ffffffff.0
Width: 566
GlyphClass: 2
Flags: W
HStem: 38 139<225.917 303.647> 349 144<231.658 334.342>
VStem: 211 144<369.658 472.342> 306 52<-44.8568 94.5>
DStem2: 202 -151 223 -182 0.8 0.6<0 114.658>
LayerCount: 2
Fore
SplineSet
208 104 m 4xd0
 208 144 234 177 272 177 c 4
 330 177 358 126 358 63 c 4
 358 -52 292 -137 227 -179 c 6
 223 -182 l 5
 202 -151 l 5
 206 -148 l 6
 254 -115 306 -59 306 9 c 4
 306 31 293 38 262 38 c 4
 228 38 208 70 208 104 c 4xd0
EndSplineSet
Refer: 17 46 N 1 0 0 1 0 361 2
Validated: 1
Colour: ffff
EndChar

StartChar: less
Encoding: 60 60 31
Width: 566
GlyphClass: 2
Flags: W
DStem2: 40 289 120 275 0.878974 0.476869<63.6418 490.538> 120 275 40 258 0.880342 -0.47434<0 429.535>
LayerCount: 2
Fore
SplineSet
478 22 m 5
 40 258 l 5
 40 289 l 5
 475 525 l 5
 495 479 l 5
 120 275 l 5
 498 71 l 5
 478 22 l 5
EndSplineSet
Validated: 1
EndChar

StartChar: equal
Encoding: 61 61 32
Width: 566
GlyphClass: 2
Flags: W
HStem: 148 52<33 532> 345 52<33 533>
LayerCount: 2
Fore
SplineSet
33 345 m 1
 33 397 l 5
 533 397 l 5
 533 345 l 1
 33 345 l 1
33 148 m 1
 33 200 l 1
 532 200 l 1
 532 148 l 1
 33 148 l 1
EndSplineSet
Validated: 1
EndChar

StartChar: greater
Encoding: 62 62 33
Width: 566
GlyphClass: 2
Flags: W
DStem2: 40 71 60 22 0.880342 0.47434<0 429.535> 63 525 43 479 0.878974 -0.476869<4.35648 431.253>
LayerCount: 2
Fore
SplineSet
60 22 m 1
 40 71 l 1
 418 275 l 1
 43 479 l 1
 63 525 l 1
 498 289 l 1
 498 258 l 1
 60 22 l 1
EndSplineSet
Validated: 1
EndChar

StartChar: question
Encoding: 63 63 34
Width: 566
GlyphClass: 2
Flags: W
HStem: -12 144<238.158 340.842> 170 32<234.315 322.974> 459 99<140.807 205.028> 662 32<190.313 323.001>
VStem: 89.5 48<535 616.985> 187.5 37<210.58 297.601> 217.5 144<8.65845 111.342> 340.5 26<222.936 287.079> 374.5 102<474.217 618.272>
LayerCount: 2
Fore
SplineSet
268.5 694 m 0xfd80
 326.5 694 375.5 681 415.5 655 c 0
 455.5 629 476.5 593 476.5 547 c 0
 476.5 527 472.5 508 463.5 490 c 0
 454.5 472 442.5 455 424.5 439 c 0
 406.5 423 391.5 411 377.5 401 c 0
 363.5 391 344.5 378 319.5 363 c 0
 256.5 324 224.5 285 224.5 248 c 0
 224.5 217 243.5 202 280.5 202 c 0
 297.5 202 312.5 207 323.5 218 c 0
 334.5 229 340.5 244 340.5 262 c 0
 340.5 272 338.5 279 335.5 285 c 1
 363.5 292 l 1
 365.5 281 366.5 271 366.5 260 c 0
 366.5 235 357.5 213 339.5 196 c 0
 321.5 179 301.5 170 280.5 170 c 0
 253.5 170 230.5 176 213.5 190 c 0
 196.5 204 187.5 223 187.5 248 c 0
 187.5 267 191.5 283 199.5 297 c 0
 207.5 311 219.5 327 236.5 344 c 2
 314.5 423 l 2
 334.5 444 349.5 463 359.5 481 c 0
 369.5 499 374.5 520 374.5 544 c 0
 374.5 578 364.5 607 344.5 629 c 0
 324.5 651 296.5 662 257.5 662 c 0
 226.5 662 197.5 655 173.5 640 c 0
 149.5 625 137.5 608 137.5 589 c 0
 137.5 575 139.5 566 143.5 562 c 0
 146.5 560 150.5 558 153.5 558 c 0
 158.5 558 162.5 558 164.5 559 c 0
 169.5 561 174.5 561 182.5 561 c 0
 194.5 561 203.5 557 210.5 548 c 0
 217.5 539 219.5 528 219.5 515 c 0
 219.5 499 215.5 485 205.5 475 c 0
 195.5 465 181.5 459 162.5 459 c 0
 142.5 459 125.5 467 111.5 483 c 0
 97.5 499 89.5 521 89.5 549 c 0
 89.5 590 108.5 624 145.5 652 c 0
 182.5 680 223.5 694 268.5 694 c 0xfd80
289.5 -12 m 256
 268.5 -12 251.5 -6 237.5 8 c 0
 223.5 22 217.5 39 217.5 60 c 256
 217.5 81 223.5 98 237.5 112 c 0
 251.5 126 268.5 132 289.5 132 c 256
 310.5 132 327.5 126 341.5 112 c 0
 355.5 98 361.5 81 361.5 60 c 256xfa80
 361.5 39 355.5 22 341.5 8 c 0
 327.5 -6 310.5 -12 289.5 -12 c 256
EndSplineSet
Validated: 1
EndChar

StartChar: at
Encoding: 64 64 35
Width: 566
GlyphClass: 2
Flags: W
HStem: -22 38<200.49 357.134> 128 34<208.885 256.574 365.06 432.927> 547 34<274.143 325.089> 696 37<212.04 359.203>
VStem: 26 55<178.018 508.337> 152 54<162.026 408.943> 486 55<232.916 527.947>
DStem2: 321 335 363 257 0.189433 0.981894<-110.921 124.665 192.587 237.306>
LayerCount: 2
Fore
SplineSet
214 128 m 0
 192 128 176 139 166 161 c 0
 156 183 152 214 152 255 c 0
 152 296 156 338 164 380 c 0
 190 514 237 581 305 581 c 0
 333 581 350 562 357 524 c 1
 358 524 l 1
 366 568 l 1
 423 568 l 1
 363 257 l 2
 360 243 359 229 359 214 c 0
 359 191.209960938 366.875976562 160 383 160 c 0
 452 160 486 239 486 397 c 0
 486 558.262695312 428.232421875 696 279 696 c 0
 133.331054688 696 81 499.311523438 81 338 c 0
 81 165.408203125 124.165039062 16 285 16 c 0
 326 16 368 34 411 70 c 1
 423 38 l 1
 381 -2.298828125 332 -22 277 -22 c 0
 95.7568359375 -22 26 149.067382812 26 354 c 0
 26 542.42578125 117.55078125 733 285 733 c 0
 457.93359375 733 541 558.720703125 541 376 c 0
 541 211 484 128 371 128 c 0
 353 128 337 135 324 149 c 0
 311 163 304 182 302 206 c 1
 301 206 l 1
 293 188 281 170 266 153 c 0
 251 136 233 128 214 128 c 0
218 162 m 0
 241 162 262 177.365234375 280 209 c 0
 298 244 312 286 321 335 c 2
 337 419 l 2
 339 431 340 444 340 459 c 0
 340 474 338 489 334 506 c 0
 327 532.739257812 318 547 305 547 c 0
 265 547 235 476.666992188 215 336 c 0
 210 297 207 259 206 223 c 0
 206 182.333007812 210 162 218 162 c 0
EndSplineSet
Validated: 1
EndChar

StartChar: A
Encoding: 65 65 36
Width: 566
GlyphClass: 2
Flags: W
HStem: 0 38<19 66.1232 125.374 219 330 405.904 496.96 553> 210 40<176 354> 692 20G<256.149 316.552>
DStem2: 85 107 135 110 0.280792 0.959769<-31.4587 121.039 162.799 490.959> 311 712 268 565 0.267487 -0.963561<130.142 456.667 498.152 654.343>
AnchorPoint: "Bottom" 274 0 basechar 0
AnchorPoint: "Top" 287 762 basechar 0
LayerCount: 2
Fore
SplineSet
176 250 m 1
 354 250 l 1
 268 565 l 1
 176 250 l 1
374 38 m 2
 398 38 406 46 406 59 c 0
 406 65 404 74 402 81 c 2
 365 210 l 1
 164 210 l 1
 135 110 l 2
 129 89 125 73 125 62 c 0
 125 42 139 38 173 38 c 2
 219 38 l 1
 219 0 l 1
 19 0 l 1
 19 38 l 1
 46 38 l 2
 58 38 67 49 85 107 c 2
 262 712 l 1
 311 712 l 1
 487 78 l 2
 496.10627997 45.1966960169 520.35 38 533 38 c 2
 553 38 l 1
 553 0 l 1
 330 0 l 1
 330 38 l 1
 374 38 l 2
EndSplineSet
Validated: 1
EndChar

StartChar: B
Encoding: 66 66 37
Width: 566
GlyphClass: 2
Flags: W
HStem: 0 38<25 88.2024 174.152 387.94> 354 38<173 376.278> 674 38<25 88.2024 174.152 372.3>
VStem: 89 84<39.6875 354 392 672.312> 415 102<452.248 630.995> 439 102<90.6706 298.562>
AnchorPoint: "Bottom" 312 0 basechar 0
AnchorPoint: "Top" 312 762 basechar 0
LayerCount: 2
Fore
SplineSet
173 354 m 1xf4
 173 65 l 2
 173 47 186 38 212 38 c 2
 323 38 l 2
 400 38 439 91.0061349693 439 198 c 0
 439 302 400 354 323 354 c 2
 173 354 l 1xf4
25 0 m 1
 25 38 l 1
 62 38 l 2
 80 38 89 47 89 65 c 2
 89 647 l 2
 89 665 80 674 62 674 c 2
 25 674 l 1
 25 712 l 1
 325 712 l 2
 416.155539117 712 517 676.029538088 517 542 c 0xf8
 517 455.69151451 463.082846564 393.730983135 420 375 c 1
 420 370 l 1
 473.531888825 363.248052377 541 323.691301117 541 194 c 0
 541 41.225280157 440.604902107 0 334 0 c 2
 25 0 l 1
173 392 m 1
 318 392 l 2
 398.746457112 392 415 457.58507305 415 541 c 0
 415 580 407 613 389 639 c 0
 371 662.947368421 350 674 324 674 c 2
 212 674 l 2
 186 674 173 665 173 647 c 2
 173 392 l 1
EndSplineSet
Validated: 1
EndChar

StartChar: C
Encoding: 67 67 38
Width: 566
GlyphClass: 2
Flags: W
HStem: -18 38<239.807 386.103> 692 38<231.929 383.801> 702 20G<483.794 515.5>
VStem: 33.5 102<193.174 523.918> 488.5 27<443 504.564 692.25 722> 492.5 39<159.052 260>
LayerCount: 2
Fore
SplineSet
301.5 730 m 0xd4
 353.5 730 411.5 704 442.5 673 c 0
 453.5 660 459.5 647 464.5 647 c 0
 466.5 647 468.5 650 470.5 654 c 0
 472.5 658 474.5 663 476.5 671 c 2
 488.5 722 l 1
 515.5 722 l 1
 515.5 443 l 1
 488.5 443 l 1xb8
 462.900390625 578.525390625 437.684570312 692 307.5 692 c 0
 142.5 692 135.5 511.639648438 135.5 362 c 256
 135.5 204.3828125 148.5 20 318.5 20 c 0
 427.5 20 485.5 134.568359375 492.5 260 c 1
 531.5 260 l 1
 524.5 131 468.5 -18 314.5 -18 c 0
 127.5 -18 33.5 128 33.5 361 c 0
 33.5 587 129.5 730 301.5 730 c 0xd4
EndSplineSet
Validated: 1
EndChar

StartChar: D
Encoding: 68 68 39
Width: 566
GlyphClass: 2
Flags: W
HStem: 0 38<8 87.2024 173.152 333.439> 674 38<8 87.2024 173.152 334.014>
VStem: 88 84<39.6875 672.312> 435 102<208.256 516.478>
AnchorPoint: "Bottom" 277 0 basechar 0
AnchorPoint: "Top" 277 762 basechar 0
LayerCount: 2
Fore
SplineSet
8 0 m 1
 8 38 l 1
 61 38 l 2
 79 38 88 47 88 65 c 2
 88 647 l 2
 88 665 79 674 61 674 c 2
 8 674 l 1
 8 712 l 1
 267 712 l 2
 460 712 537 544 537 362 c 0
 537 181 458 0 267 0 c 2
 8 0 l 1
435 362 m 0
 435 503.638095238 415 674 263 674 c 2
 211 674 l 2
 185 674 172 665 172 647 c 2
 172 65 l 2
 172 47 185 38 211 38 c 2
 263 38 l 2
 418 38 435 221.302752294 435 362 c 0
EndSplineSet
Validated: 1
EndChar

StartChar: E
Encoding: 69 69 40
Width: 566
GlyphClass: 2
Flags: W
HStem: 0 38<8 88.2024 174.772 435.839> 342 39<173 334.624> 674 38<8 88.2024 174.694 436.804>
VStem: 89 84<42.4561 342 381 669.88> 361 28<205 311.09 410.119 517> 494 27<486 577.108> 500 27<236 267>
AnchorPoint: "Bottom" 276 0 basechar 0
AnchorPoint: "Top" 276 762 basechar 0
LayerCount: 2
Fore
SplineSet
8 0 m 1xfa
 8 38 l 1
 62 38 l 2
 80 38 89 47 89 65 c 2
 89 647 l 2
 89 665 80 674 62 674 c 2
 8 674 l 1
 8 712 l 1
 517 712 l 1
 521 486 l 1
 494 486 l 1xfc
 493 505 l 2
 493 516 490 535 485 560 c 0
 480 582 473 602 465 620 c 0
 447 656 419 674 380 674 c 2
 232 674 l 2
 192 674 173 665 173 647 c 2
 173 381 l 1
 304 381 l 2
 317 381 327 385 335 393 c 0
 343 401 350 413 353 428 c 0
 356 443 358 458 359 471 c 0
 360 484 361 499 361 517 c 1
 389 517 l 1
 389 205 l 1
 361 205 l 1
 361 223 361 239 360 252 c 0
 359 265 357 279 353 294 c 0
 349 309 343 322 335 330 c 0
 327 338 317 342 304 342 c 2
 173 342 l 1
 173 65 l 2
 173 47 193 38 233 38 c 2
 380 38 l 2
 417.329101562 38 445.446289062 59.1591796875 460 85 c 0
 476.135742188 117.271484375 492.974609375 191.715820312 497 236 c 2
 500 267 l 1
 527 267 l 1
 514 0 l 1
 8 0 l 1xfa
EndSplineSet
Validated: 1
EndChar

StartChar: F
Encoding: 70 70 41
Width: 566
GlyphClass: 2
Flags: W
HStem: 0 38<8 93.2024 179.767 325> 342 39<178 367.624> 674 38<8 93.2024 180.469 439.804>
VStem: 94 84<42.4561 342 381 667.25> 394 28<205 311.09 410.119 517> 497 27<486 577.108>
AnchorPoint: "Bottom" 164 0 basechar 0
AnchorPoint: "Top" 280 762 basechar 0
LayerCount: 2
Fore
SplineSet
8 0 m 1
 8 38 l 1
 67 38 l 2
 85 38 94 47 94 65 c 2
 94 647 l 2
 94 665 85 674 67 674 c 2
 8 674 l 1
 8 712 l 1
 520 712 l 1
 524 486 l 1
 497 486 l 1
 496 505 l 2
 496 516 493 535 488 560 c 0
 483 582 476 602 468 620 c 0
 450 656 422 674 383 674 c 2
 264 674 l 2
 205.694915254 674 178 665 178 647 c 2
 178 381 l 1
 337 381 l 2
 350 381 360 385 368 393 c 0
 376 401 383 413 386 428 c 0
 389 443 391 458 392 471 c 0
 393 484 394 499 394 517 c 1
 422 517 l 1
 422 205 l 1
 394 205 l 1
 394 223 394 239 393 252 c 0
 392 265 390 279 386 294 c 0
 382 309 376 322 368 330 c 0
 360 338 350 342 337 342 c 2
 178 342 l 1
 178 65 l 2
 178 47 198 38 237 38 c 2
 325 38 l 1
 325 0 l 1
 8 0 l 1
EndSplineSet
Validated: 1
EndChar

StartChar: G
Encoding: 71 71 42
Width: 566
GlyphClass: 2
Flags: W
HStem: -18 38<224.25 342.362> 317 38<266 395.542 484.719 554> 692 38<228.219 349.856> 702 20G<468.941 504>
VStem: 28 102<183.372 526.065> 396 88<116.614 316.835> 448 36<-13 113.991> 476 28<444 485.063>
AnchorPoint: "Bottom" 294 1 basechar 0
AnchorPoint: "Top" 294 762 basechar 0
LayerCount: 2
Fore
SplineSet
294 730 m 0xea
 338 730 376 707 410 670 c 0
 419 660 425 654 432 654 c 0
 443 654 453 661 458 671 c 2
 476 722 l 1
 504 722 l 1
 504 444 l 1
 476 444 l 1xd9
 451 533 388 692 298 692 c 0
 155 692 130 528 130 356 c 256
 130 188 149 20 292 20 c 0
 361 20 396 106 396 189 c 2
 396 290 l 2
 396 308 391 317 378 317 c 2
 266 317 l 1
 266 355 l 1
 554 355 l 1
 554 317 l 1
 510 317 l 2
 492 317 484 308 484 290 c 2xec
 484 -13 l 1
 448 -13 l 1
 448 79 l 2
 448 102 445 114 440 114 c 256
 430 114 424 99 416 73 c 0
 402 27 357 -18 294 -18 c 0
 117 -18 28 127 28 356 c 0
 28 585 117 730 294 730 c 0xea
EndSplineSet
Validated: 1
EndChar

StartChar: H
Encoding: 72 72 43
Width: 566
GlyphClass: 2
Flags: W
HStem: 0 38<8 87.1239 173.074 246 320 392.926 478.876 558> 353 38<172 394> 674 38<8 87.1239 173.074 246 320 392.926 478.876 558>
VStem: 88 84<39.6875 353 391 672.312> 394 84<39.6875 353 391 672.312>
AnchorPoint: "Bottom" 284 0 basechar 0
AnchorPoint: "Top" 284 762 basechar 0
LayerCount: 2
Fore
SplineSet
8 0 m 1
 8 38 l 1
 60 38 l 2
 78 38 88 47 88 65 c 2
 88 647 l 2
 88 665 78 674 60 674 c 2
 8 674 l 1
 8 712 l 1
 246 712 l 1
 246 674 l 1
 210 674 l 2
 184 674 172 665 172 647 c 2
 172 391 l 1
 394 391 l 1
 394 647 l 2
 394 665 382 674 356 674 c 2
 320 674 l 1
 320 712 l 1
 558 712 l 1
 558 674 l 1
 506 674 l 2
 488 674 478 665 478 647 c 2
 478 65 l 2
 478 47 488 38 506 38 c 2
 558 38 l 1
 558 0 l 1
 320 0 l 1
 320 38 l 1
 356 38 l 2
 382 38 394 47 394 65 c 2
 394 353 l 1
 172 353 l 1
 172 65 l 2
 172 47 184 38 210 38 c 2
 246 38 l 1
 246 0 l 1
 8 0 l 1
EndSplineSet
Validated: 1
EndChar

StartChar: I
Encoding: 73 73 44
Width: 566
GlyphClass: 2
Flags: W
HStem: 0 38<52 239.931 326.069 514> 674 38<62 239.931 326.069 504>
VStem: 241 84<39.4832 672.517>
AnchorPoint: "Bottom" 286 0 basechar 0
AnchorPoint: "Top" 285 762 basechar 0
LayerCount: 2
Fore
SplineSet
52 0 m 1
 52 38 l 1
 204 38 l 2
 229 38 241 47 241 65 c 2
 241 647 l 2
 241 665 229 674 204 674 c 2
 62 674 l 1
 62 712 l 1
 504 712 l 1
 504 674 l 1
 362 674 l 2
 337 674 325 665 325 647 c 2
 325 65 l 2
 325 47 337 38 362 38 c 2
 514 38 l 1
 514 0 l 1
 52 0 l 1
EndSplineSet
Validated: 1
EndChar

StartChar: J
Encoding: 74 74 45
Width: 566
GlyphClass: 2
Flags: W
HStem: -18 38<125.238 304.218> 104 124<98.7041 160.653> 674 38<172 377.01 463.087 558>
VStem: 32 66<42.853 159.5> 378 84<84.5471 672.517>
AnchorPoint: "Bottom" 230 2 basechar 0
AnchorPoint: "Top" 422 762 basechar 0
LayerCount: 2
Fore
SplineSet
128 104 m 0
 107 104 98 97 98 77 c 0
 98 33 168 20 218 20 c 0
 313.737704918 20 378 74 378 145 c 2
 378 647 l 2
 378 665 367 674 342 674 c 2
 172 674 l 1
 172 712 l 1
 558 712 l 1
 558 674 l 1
 498 674 l 2
 474.315789474 674 462 665 462 647 c 2
 462 193 l 2
 462 37 370.656862745 -18 220 -18 c 0
 77 -18 32 32 32 133 c 0
 32 186 63 228 112 228 c 0
 151 228 176 199 176 161 c 0
 176 132 156 104 128 104 c 0
EndSplineSet
Validated: 1
EndChar

StartChar: K
Encoding: 75 75 46
Width: 566
GlyphClass: 2
Flags: W
HStem: 0 38<8 88.5781 173.771 268 314 378.994 473.939 558> 674 38<8 88.5781 173.343 268 330 382.404 455.447 538>
VStem: 89 84<39.6934 280 347 672.5>
DStem2: 173 347 173 280 0.598454 0.801157<0 79.9226 172.519 367.501> 310 460 253 387 0.364215 -0.931315<47.2257 401.032>
AnchorPoint: "Bottom" 292 0 basechar 0
AnchorPoint: "Top" 298 762 basechar 0
LayerCount: 2
Fore
SplineSet
8 0 m 1
 8 38 l 1
 62 38 l 2
 80 38 89 46 89 62 c 2
 89 650 l 2
 89 666 80 674 62 674 c 2
 8 674 l 1
 8 712 l 1
 268 712 l 1
 268 674 l 1
 212 674 l 2
 186 674 173 666.038085938 173 651 c 2
 173 347 l 1
 353 587 l 2
 373.5 614.8125 383.03125 635.368164062 383.03125 649.494140625 c 0
 383.03125 666.294921875 369.547851562 674 345 674 c 2
 330 674 l 1
 330 712 l 1
 538 712 l 1
 538 674 l 1
 498 674 l 2
 472.023779297 674 462.15203468 668.352335779 421 612 c 2
 310 460 l 1
 459 79 l 2
 470.706054688 51.7314453125 491.661132812 38 534 38 c 2
 558 38 l 1
 558 0 l 1
 314 0 l 1
 314 38 l 1
 360 38 l 2
 370.397460938 38 379 47.1689453125 379 56 c 0
 379 64 377 72 374 81 c 2
 253 387 l 1
 173 280 l 1
 173 63 l 2
 173 46.0361328125 186 38 212 38 c 2
 268 38 l 1
 268 0 l 1
 8 0 l 1
EndSplineSet
Validated: 1
EndChar

StartChar: L
Encoding: 76 76 47
Width: 566
GlyphClass: 2
Flags: W
HStem: 0 38<8 86.9314 172.881 422.766> 674 38<8 86.9314 172.881 295>
VStem: 88 84<39.4832 672.517>
DStem2: 488 270 515 270 0.0517823 0.998658<-127.31 0>
AnchorPoint: "Bottom" 295 0 basechar 0
AnchorPoint: "Top" 153 762 basechar 0
LayerCount: 2
Fore
SplineSet
8 0 m 1
 8 38 l 1
 51 38 l 2
 76 38 88 47 88 65 c 2
 88 647 l 2
 88 665 76 674 51 674 c 2
 8 674 l 1
 8 712 l 1
 295 712 l 1
 295 674 l 1
 201 674 l 2
 182 674 172 665 172 647 c 2
 172 65 l 2
 172 47 182 38 201 38 c 2
 371 38 l 2
 436.923828125 38 458.109375 101.895507812 472 160 c 0
 479 191 483 216 485 237 c 2
 488 270 l 1
 515 270 l 1
 501 0 l 1
 8 0 l 1
EndSplineSet
Validated: 1
EndChar

StartChar: M
Encoding: 77 77 48
Width: 566
GlyphClass: 2
Flags: W
HStem: 0 38<8 58.7053 122.958 184 342 411.816 496.705 558> 674 38<8 71.5352 496.652 558>
VStem: 72 42<47.0531 620> 412 84<40.3438 620>
DStem2: 168 712 116 620 0.223252 -0.974761<78.0689 525.198> 285 200 280 0 0.208236 0.978079<0 437.239>
AnchorPoint: "Bottom" 268 0 basechar 0
AnchorPoint: "Top" 278 762 basechar 0
LayerCount: 2
Fore
SplineSet
8 0 m 1
 8 38 l 1
 28 38 l 2
 57 38 72 70 72 114 c 2
 72 650 l 2
 72 666 62 674 44 674 c 2
 8 674 l 1
 8 712 l 1
 168 712 l 1
 285 200 l 1
 394 712 l 1
 558 712 l 1
 558 674 l 1
 536 674 l 2
 510 674 496 666 496 650 c 2
 496 62 l 2
 496 46 511 38 542 38 c 2
 558 38 l 1
 558 0 l 1
 342 0 l 1
 342 38 l 1
 392 38 l 2
 405 38 412 45 412 61 c 2
 412 620 l 1
 280 0 l 1
 258 0 l 1
 116 620 l 1
 114 620 l 1
 114 114 l 2
 114 76 121 38 148 38 c 2
 184 38 l 1
 184 0 l 1
 8 0 l 1
EndSplineSet
Validated: 1
EndChar

StartChar: N
Encoding: 78 78 49
Width: 566
GlyphClass: 2
Flags: W
HStem: -18 21G<424.275 477> 0 38<8 81.7753 140.646 213> 674 38<8 88.5781 363 422.503 494.539 558>
VStem: 89 43<42.4368 601> 434 43<188 658.764>
DStem2: 179 712 133 601 0.437307 -0.899312<79.7075 582.753>
AnchorPoint: "Bottom" 285 0 basechar 0
AnchorPoint: "Top" 285 762 basechar 0
LayerCount: 2
Fore
SplineSet
8 0 m 1x78
 8 38 l 1
 46 38 l 2x78
 88.5280947848 38 89 70.3075145395 89 114 c 2
 89 650 l 2
 89 666 80 674 62 674 c 2
 8 674 l 1
 8 712 l 1
 179 712 l 1
 434 188 l 1
 434 603 l 2
 434 639.928846879 423.422122501 674 390 674 c 2
 363 674 l 1
 363 712 l 1
 558 712 l 1
 558 674 l 1
 537 674 l 2
 496.002608171 674 477 639.732762992 477 597 c 2
 477 -18 l 1
 434 -18 l 1xb8
 133 601 l 1
 132 601 l 1
 132 114 l 2
 132 76.5236610245 136.533707591 38 170 38 c 2
 213 38 l 1
 213 0 l 1
 8 0 l 1x78
EndSplineSet
Validated: 1
EndChar

StartChar: O
Encoding: 79 79 50
Width: 566
GlyphClass: 2
Flags: W
HStem: -18 38<221.46 344.54> 692 38<221.46 344.54>
VStem: 28 102<181.516 530.484> 436 102<181.516 530.484>
AnchorPoint: "Bottom" 282 2 basechar 0
AnchorPoint: "Top" 282 762 basechar 0
LayerCount: 2
Fore
SplineSet
283 -18 m 256
 113 -18 28 127 28 356 c 256
 28 585 113 730 283 730 c 256
 453 730 538 585 538 356 c 260
 538 127 453 -18 283 -18 c 256
283 20 m 256
 385 20 436 132.331054688 436 356 c 256
 436 579.668945312 385 692 283 692 c 256
 181 692 130 579.668945312 130 356 c 256
 130 132.331054688 181 20 283 20 c 256
EndSplineSet
Validated: 1
EndChar

StartChar: P
Encoding: 80 80 51
Width: 566
GlyphClass: 2
Flags: W
HStem: 0 35<8 86.5063 173.122 298> 334 38<172 377.486> 674 38<8 86.9314 172.803 380.6>
VStem: 88 84<36.4832 334 372 672.517> 436 102<441.961 607.135>
AnchorPoint: "Top" 303 762 basechar 0
LayerCount: 2
Fore
SplineSet
8 0 m 1
 8 35 l 1
 51 35 l 2
 76 35 88 44 88 62 c 2
 88 647 l 2
 88 665 76 674 51 674 c 2
 8 674 l 1
 8 712 l 1
 320 712 l 2
 443 712 538 631 538 525 c 256
 538 419 444 334 323 334 c 2
 172 334 l 1
 172 62 l 2
 172 44 181 35 200 35 c 2
 298 35 l 1
 298 0 l 1
 8 0 l 1
172 372 m 1
 327 372 l 2
 404 372 436 460.269230769 436 525 c 256
 436 590.677631579 406 674 327 674 c 2
 200 674 l 2
 181 674 172 665 172 647 c 2
 172 372 l 1
EndSplineSet
Validated: 1
EndChar

StartChar: Q
Encoding: 81 81 52
Width: 566
GlyphClass: 2
Flags: W
HStem: -168 79<392.504 478.906> -18 38<255.974 328.413> 148 36<254.909 315.375> 692 38<215.153 335.264>
VStem: 25 102<183.7 534.168> 205 41<49.4739 142.786> 428 102<198.537 525.895> 513 26<-39.1774 52>
AnchorPoint: "Bottom" 238 1 basechar 0
AnchorPoint: "Top" 276 762 basechar 0
LayerCount: 2
Fore
SplineSet
288 -18 m 0xfd
 113 -18 25 127 25 356 c 256
 25 585 108 730 276 730 c 256
 445 730 530 582 530 348 c 0xfe
 530 205 479 84 376 20 c 1
 381 -34 l 1
 386 -70 405 -89 437 -89 c 0
 487.666992188 -89 513 -42 513 52 c 1
 539 52 l 1
 539 -95 497 -168 412 -168 c 0
 388 -168 367 -156 352 -134 c 0
 337 -112 329 -83 329 -48 c 2
 329 -9 l 1
 315 -15 301 -18 288 -18 c 0xfd
287 148 m 0
 259 148 246 128 246 88 c 0
 246 43.41015625 260 20 287 20 c 0
 304 20 318 26.7998046875 329 37 c 1
 329 97.4296875 324.42578125 148 287 148 c 0
428 345 m 0
 428 576.673828125 377 692 276 692 c 256
 174.202148438 692 127 577.745117188 127 356 c 0
 127 202 154 99 208 49 c 1
 206 56 205 69 205 87 c 0
 205 139.8984375 238.5390625 184 287 184 c 0
 342.552734375 184 364.564453125 142 369 65 c 1
 408 107 428 200 428 345 c 0
EndSplineSet
Validated: 1
EndChar

StartChar: R
Encoding: 82 82 53
Width: 566
GlyphClass: 2
Flags: W
HStem: -12 69<455.362 518.106> 0 35<8 87.0063 173.729 263.5> 366 38<172.5 352.807> 674 38<8 87.4314 173.381 381.394>
VStem: 88.5 84<36.4832 366 404 672.517> 428.5 102<476.502 630.435> 528.5 27<72.082 163>
AnchorPoint: "Bottom" 241.5 1 basechar 0
AnchorPoint: "Top" 272.5 762 basechar 0
LayerCount: 2
Fore
SplineSet
172.5 404 m 1x3c
 290.5 404 l 2
 382.5 404 428.5 452.341796875 428.5 551 c 0
 428.5 616.404296875 396.5 674 313.5 674 c 2
 201.5 674 l 2
 182.5 674 172.5 665 172.5 647 c 2
 172.5 404 l 1x3c
8 0 m 1x7a
 8 35 l 1
 51.5 35 l 2
 76.5 35 88.5 44 88.5 62 c 2
 88.5 647 l 2
 88.5 665 76.5 674 51.5 674 c 2
 8 674 l 1
 8 712 l 1
 321.5 712 l 2
 444.5 712 530.5 653 530.5 552 c 0x7c
 530.5 459 441.5 391 340.5 380 c 1
 340.5 375 l 1
 372.5 368 398.5 350 419.5 323 c 0
 437.5 296 450.5 250 456.5 185 c 0
 461.5 131 465.5 97 470.5 81 c 0
 475.5 65 483.5 57 495.5 57 c 0
 517.5 57 528.5 93 528.5 163 c 1
 555.5 163 l 1
 555.5 47 527.5 -12 471.5 -12 c 0xba
 439.5 -12 416.5 4 404.5 35 c 0
 391.5 69 384.5 128 383.5 211 c 0
 383.5 255 377.5 292 366.5 322 c 0
 353.5 352 332.5 366 303.5 366 c 2
 172.5 366 l 1
 172.5 62 l 2
 172.5 44 182.5 35 201.5 35 c 2
 263.5 35 l 1
 263.5 0 l 1
 8 0 l 1x7a
EndSplineSet
Validated: 1
EndChar

StartChar: S
Encoding: 83 83 54
Width: 566
GlyphClass: 2
Flags: W
HStem: -18 41<236.133 415.441> -10 21G<77.4937 101.951> 692 38<172.682 345.345> 692 20G<464.947 490.766>
VStem: 64 60<538.507 644.451> 70 26<219.545 306> 78 22<-10 31> 458 64<72.0065 208.284> 464 26<649.006 712> 474 26<451 500.922>
DStem2: 264 456 214 349 0.866551 -0.499089<-127.098 282.505>
AnchorPoint: "Bottom" 332 0 basechar 0
AnchorPoint: "Top" 290 762 basechar 0
LayerCount: 2
Fore
SplineSet
70 306 m 1x44
 96 306 l 1x44
 101 231 118 166 154 111 c 0
 193 52 256 23 342 23 c 0
 420 23 458 64 458 147 c 0
 458 193 437 220 372 258 c 2
 214 349 l 2
 112 408 64 471 64 547 c 0
 64 677 144 730 264 730 c 0xa9
 327 730 387.062615044 710.065432 432 667 c 0
 443.99987793 655.5 451.166666667 649 455 649 c 0
 460.142857143 649 463.357142857 657 464 674 c 2
 466 712 l 1
 490 712 l 1x1880
 500 451 l 1
 474 451 l 1x1040
 440 612 381 692 260 692 c 0
 170 692 124 653 124 590 c 0
 124 540 172 507 264 456 c 2
 400 380 l 2
 499 325 522 274 522 193 c 0
 522 52 463 -18 344 -18 c 0xa9
 277 -18 216 -5 172 34 c 0
 163 42 134 76 122 76 c 0
 110 76 106 49 104 31 c 2
 100 -10 l 1
 78 -10 l 1x43
 70 306 l 1x44
EndSplineSet
Validated: 1
EndChar

StartChar: T
Encoding: 84 84 55
Width: 566
GlyphClass: 2
Flags: W
HStem: 0 38<159.5 241.057 325.865 406.5> 674 38<143.2 241.057 325.865 422.521>
VStem: 33.5 26<443 534.209> 241.5 84<38 674> 505.5 28<443 542.646>
LayerCount: 2
Fore
SplineSet
33.5 443 m 1
 41.5 712 l 1
 524.5 712 l 1
 533.5 443 l 1
 505.5 443 l 1
 505.5 450 505.5 462 504.5 478 c 0
 503.5 494 498.5 518 489.5 550 c 0
 480.5 582 469.5 607 454.5 625 c 0
 427.5 657.038085938 399.5 674 372.5 674 c 2
 339.5 674 l 2
 329.5 674 325.5 665 325.5 647 c 2
 325.5 65 l 6
 325.5 47 329.5 38 339.5 38 c 6
 406.5 38 l 5
 406.5 0 l 1
 159.5 0 l 1
 159.5 38 l 5
 226.5 38 l 6
 236.5 38 241.5 47 241.5 65 c 6
 241.5 647 l 2
 241.5 665 236.5 674 226.5 674 c 2
 193.5 674 l 2
 165.5 674 138.5 657.038085938 111.5 625 c 0
 96.5 607 85.5 582 76.5 550 c 0
 67.5 518 62.5 494 61.5 478 c 0
 60.5 462 59.5 450 59.5 443 c 1
 33.5 443 l 1
EndSplineSet
Validated: 1
EndChar

StartChar: U
Encoding: 85 85 56
Width: 566
GlyphClass: 2
Flags: W
HStem: -18 38<237.621 377.325> 674 38<18 89.0099 174.803 254 374 428.071 495.3 550>
VStem: 90 84<102.202 672.708> 444 42<89.6289 651.294>
AnchorPoint: "Bottom" 304 2 basechar 0
AnchorPoint: "Top" 314 762 basechar 0
LayerCount: 2
Fore
SplineSet
300 -18 m 0
 160 -18 90 67 90 236 c 2
 90 647 l 2
 90 665 79 674 54 674 c 2
 18 674 l 1
 18 712 l 1
 254 712 l 1
 254 674 l 1
 202 674 l 2
 183 674 174 665 174 647 c 2
 174 211 l 2
 174 84 218 20 304 20 c 0
 397 20 444 79 444 199 c 2
 444 594 l 2
 444 618 438 637 430 652 c 0
 422 667 411 674 398 674 c 2
 374 674 l 1
 374 712 l 1
 550 712 l 1
 550 674 l 1
 530 674 l 2
 511 674 499 667 494 652 c 0
 489 637 486 618 486 593 c 2
 486 207 l 2
 486 57 424 -18 300 -18 c 0
EndSplineSet
Validated: 1
EndChar

StartChar: V
Encoding: 86 86 57
Width: 566
GlyphClass: 2
Flags: W
HStem: -18 21G<256.185 311.42> 674 38<17.5 77.4441 176.763 263.5 343.5 408.899 484.748 548.5>
DStem2: 179.5 630 88.5 633 0.256831 -0.966456<-21.7145 497.74> 307.5 149 306.5 -18 0.238861 0.971054<0 486.777>
AnchorPoint: "Bottom" 292.5 0 basechar 0
AnchorPoint: "Top" 302.5 762 basechar 0
LayerCount: 2
Fore
SplineSet
261.5 -18 m 1
 88.5 633 l 2
 81.056640625 659.010742188 65.3125 674 30.5 674 c 2
 17.5 674 l 1
 17.5 712 l 1
 263.5 712 l 1
 263.5 674 l 1
 199.5 674 l 2
 186.692382812 674 176.5 663.625976562 176.5 652 c 0
 176.5 645 177.5 637 179.5 630 c 2
 307.5 149 l 1
 406.5 556 l 2
 412.5 580 414.5 603 414.5 625 c 0
 414.5 649.715820312 405.97265625 674 380.5 674 c 2
 343.5 674 l 1
 343.5 712 l 1
 548.5 712 l 5
 548.5 674 l 5
 532.5 674 l 2
 494.5 674 470.5 650.02734375 459.5 604 c 2
 306.5 -18 l 1
 261.5 -18 l 1
EndSplineSet
Validated: 1
EndChar

StartChar: W
Encoding: 87 87 58
Width: 566
GlyphClass: 2
Flags: W
HStem: -18 21G<147.528 181.079 394.172 418.923> 674 38<-23 28.2685 114.021 165 204 258.031 341.236 399 433 488.624 555.595 590>
DStem2: 117 630 38 633 0.171022 -0.985267<-24.1081 437.607> 187 198 177 -18 0.199823 0.979832<0 356.864> 421 196 415 -18 0.192474 0.981302<0 437.462>
AnchorPoint: "Bottom" 294 0 basechar 0
AnchorPoint: "Top" 298 762 basechar 0
LayerCount: 2
Fore
SplineSet
151 -18 m 1
 38 633 l 2
 33 660.022460938 13 674 -21 674 c 2
 -23 674 l 1
 -23 712 l 1
 165 712 l 1
 165 674 l 1
 135 674 l 2
 121 674 114 667.043945312 114 654 c 0
 114 653 115 645 117 630 c 1
 187 198 l 1
 271 608 l 1
 264 640 l 2
 259 662.97265625 242 674 215 674 c 2
 204 674 l 1
 204 712 l 1
 399 712 l 1
 399 674 l 1
 371 674 l 2
 349.749023438 674 340.39453125 668.190429688 340.39453125 644.345703125 c 0
 340.39453125 632.5078125 342.700195312 616.224609375 347 594 c 2
 421 196 l 1
 493 556 l 2
 498 585 501 608 501 627 c 0
 501 640 497 652 489 662 c 0
 481 670 471 674 457 674 c 2
 433 674 l 1
 433 712 l 1
 590 712 l 1
 590 674 l 1
 587 674 l 2
 563 674 546 650.02734375 537 604 c 2
 415 -18 l 1
 398 -18 l 1
 291 541 l 1
 177 -18 l 1
 151 -18 l 1
EndSplineSet
Validated: 1
EndChar

StartChar: X
Encoding: 88 88 59
Width: 566
GlyphClass: 2
Flags: W
HStem: 0 38<18 78.6645 140.027 222 348 383.997 485.019 548> 674 38<18 113.652 212.003 256 336 419.752 480.936 548>
DStem2: 110 101 154 96 0.50298 0.864298<-21.6656 260.676 393.451 631.659> 218 636 130 625 0.41491 -0.909862<-23.1165 214.765 264.007 272.428 324.319 595.386>
LayerCount: 2
Fore
SplineSet
18 0 m 1
 18 38 l 1
 30 38 l 2
 60 38 81 48 110 101 c 1
 254 353 l 1
 130 625 l 2
 115 658 107 674 60 674 c 2
 18 674 l 1
 18 712 l 1
 256 712 l 1
 256 674 l 1
 224 674 l 2
 216 674 212 668 212 659 c 0
 212 652 214 644 218 636 c 2
 308 441 l 1
 403 609 l 2
 411 623 420 640 420 652 c 0
 420 665 411 674 380 674 c 2
 336 674 l 1
 336 712 l 1
 548 712 l 1
 548 674 l 1
 508 674 l 2
 494 674 488 667 470 639 c 1
 328 396 l 1
 472 79 l 1
 489 44 502 38 528 38 c 2
 548 38 l 1
 548 0 l 1
 348 0 l 1
 348 38 l 1
 368 38 l 2
 380 38 384 46 384 57 c 0
 384 64 382 72 378 81 c 2
 276 306 l 1
 154 96 l 2
 146 82 140 68 140 58 c 0
 140 46 149 38 178 38 c 2
 222 38 l 1
 222 0 l 1
 18 0 l 1
EndSplineSet
Validated: 1
EndChar

StartChar: Y
Encoding: 89 89 60
Width: 566
GlyphClass: 2
Flags: W
HStem: 0 38<161 256.119 342.048 437> 674 38<19 82.1781 187.269 252 361 430.962 493.289 547>
VStem: 257 84<38.5367 324>
DStem2: 320 390 257 324 0.459814 -0.888015<-296.951 0> 320 390 341 347 0.424614 0.905375<0 279.068>
AnchorPoint: "Bottom" 301 0 basechar 0
AnchorPoint: "Top" 303 762 basechar 0
LayerCount: 2
Fore
SplineSet
207 674 m 2
 192.950519729 674 187.264531608 666.604042575 187.264531608 656.02437972 c 0
 187.264531608 648.463202935 190.168828942 639.275848431 195 630 c 2
 320 390 l 1
 416 594 l 2
 425.928859042 615.098825464 432.139724773 632.877007753 432.139724773 646.275159223 c 0
 432.139724773 663.947957442 421.333524511 674 394 674 c 2
 361 674 l 1
 361 712 l 1
 547 712 l 1
 547 674 l 1
 542 674 l 2
 502.546875 674 484.30017856 652.549141063 462 605 c 2
 341 347 l 1
 341 66 l 2
 341 47 351 38 370 38 c 2
 437 38 l 1
 437 0 l 1
 161 0 l 1
 161 38 l 1
 228 38 l 2
 247 38 257 47 257 65 c 2
 257 324 l 1
 97 633 l 2
 79.3113452978 667.161214394 63 674 38 674 c 2
 19 674 l 1
 19 712 l 1
 252 712 l 1
 252 674 l 1
 207 674 l 2
EndSplineSet
Validated: 1
EndChar

StartChar: Z
Encoding: 90 90 61
Width: 566
GlyphClass: 2
Flags: W
HStem: 0 38<140.5 428.611> 674 38<160.677 419.5>
VStem: 52.5 27<453 504.8> 501.5 27<248 281>
DStem2: 45.5 35 140.5 38 0.506374 0.862314<50.6925 740.402>
AnchorPoint: "Bottom" 413.5 0 basechar 0
AnchorPoint: "Top" 385.5 762 basechar 0
LayerCount: 2
Fore
SplineSet
45.5 0 m 1
 45.5 35 l 1
 419.5 674 l 1
 205.5 674 l 2
 178.5 674 153.5 655.982421875 130.5 619 c 0
 115.5 593 102.5 560 93.5 522 c 0
 84.5 484 79.5 461 79.5 453 c 1
 52.5 453 l 1
 87.5 712 l 1
 517.5 712 l 1
 517.5 680 l 1
 140.5 38 l 1
 398.5 38 l 2
 446.5 38 486.5 184.901367188 495.5 248 c 2
 501.5 281 l 1
 528.5 281 l 1
 503.5 0 l 1
 45.5 0 l 1
EndSplineSet
Validated: 1
EndChar

StartChar: bracketleft
Encoding: 91 91 62
Width: 566
GlyphClass: 2
Flags: W
HStem: -198 28<364.5 421> 702 28<364.5 421>
VStem: 182 84<-153.854 685.854>
LayerCount: 2
Fore
SplineSet
182 -185 m 1
 182 717 l 1
 420 730 l 5
 424 702 l 5
 288 686 l 2
 273 683 266 673 266 654 c 2
 266 -122 l 2
 266 -141 273 -151 288 -154 c 2
 424 -170 l 5
 420 -198 l 5
 182 -185 l 1
EndSplineSet
Validated: 1
EndChar

StartChar: backslash
Encoding: 92 92 63
Width: 566
GlyphClass: 2
Flags: W
HStem: 710 20G<108 166.422>
DStem2: 160 730 108 730 0.305743 -0.952114<0 958.775>
LayerCount: 2
Fore
SplineSet
458 -198 m 1
 406 -198 l 1
 108 730 l 1
 160 730 l 1
 458 -198 l 1
EndSplineSet
Validated: 1
EndChar

StartChar: bracketright
Encoding: 93 93 64
Width: 566
GlyphClass: 2
Flags: W
HStem: -198 28<145 201.5> 702 28<145 201.5>
VStem: 300 84<-153.854 685.854>
LayerCount: 2
Fore
SplineSet
384 -185 m 1
 146 -198 l 5
 142 -170 l 5
 278 -154 l 2
 293 -151 300 -141 300 -122 c 2
 300 654 l 2
 300 673 293 683 278 686 c 2
 142 702 l 5
 146 730 l 5
 384 717 l 1
 384 -185 l 1
EndSplineSet
Validated: 1
EndChar

StartChar: asciicircum
Encoding: 94 94 65
Width: 566
GlyphClass: 2
Flags: W
DStem2: 54 334 116 334 0.530204 0.84787<32.8727 355.324> 286 705 286 608 0.523585 -0.851974<82.6414 402.997>
LayerCount: 2
Fore
SplineSet
54 334 m 1
 286 705 l 1
 514 334 l 1
 452 334 l 5
 286 608 l 1
 116 334 l 1
 54 334 l 1
EndSplineSet
Validated: 1
EndChar

StartChar: underscore
Encoding: 95 95 66
Width: 566
GlyphClass: 2
Flags: W
HStem: -162 52<43 523>
LayerCount: 2
Fore
SplineSet
43 -162 m 1
 43 -110 l 1
 523 -110 l 1
 523 -162 l 1
 43 -162 l 1
EndSplineSet
Validated: 1
EndChar

StartChar: uni02CB
Encoding: 715 715 67
AltUni2: 000060.ffffffff.0
Width: 566
GlyphClass: 2
Flags: W
HStem: 493 205
VStem: 199 168
LayerCount: 2
Fore
SplineSet
227 698 m 0
 244 698 260 686 275 661 c 2
 367 506 l 1
 355 493 l 1
 227 611 l 2
 208 627 199 644 199 662 c 0
 199 686 208 698 227 698 c 0
EndSplineSet
Validated: 1
EndChar

StartChar: a
Encoding: 97 97 68
Width: 566
GlyphClass: 2
Flags: W
HStem: -12 42<177.966 299.446 448.421 523.417> 276 92<158.987 209.197> 430 38<174.447 354.085>
VStem: 66 97<44.4006 174.29> 107 51<326 414.285> 393 84<38.0625 77 113.375 227 260 394.966> 536 24<51.6497 129>
DStem2: 259 244 265 212 0.992947 0.118561<-65.6852 131.039>
AnchorPoint: "Top" 280 508 basechar 0
AnchorPoint: "Bottom" 272 1 basechar 0
LayerCount: 2
Fore
SplineSet
163 102 m 0xf6
 163 54 185 30 230 30 c 0
 313.140939597 30 364.181208054 99 393 142 c 1
 393 227 l 1
 265 212 l 1
 195 201.658119658 163 172.512820513 163 102 c 0xf6
167 276 m 0
 132 276 107 307 107 345 c 0xee
 107 425 161 468 264 468 c 0
 374.246231156 468 477 428 477 327 c 2
 477 83 l 2
 477 51.98 480.718080781 36 504 36 c 0
 525.106382979 36 536 67.96875 536 129 c 1
 560 129 l 1
 560 35 531 -12 474 -12 c 0
 422.842105263 -12 395.557894737 17.6666666667 393 77 c 1
 387 79 l 1
 358.846153846 36.2857142857 293.047337278 -12 204 -12 c 0
 123 -12 66 20 66 104 c 0xf6
 66 208 167 231 259 244 c 2
 393 260 l 1
 393 347 l 2
 393 402.042105263 348.371900826 430 258 430 c 0
 220 430 158 416.235294118 158 391 c 0xee
 158 377 164 370 176 368 c 0
 203 360 216 345 216 322 c 0
 216 291 200 276 167 276 c 0
EndSplineSet
Validated: 1
EndChar

StartChar: b
Encoding: 98 98 69
Width: 566
GlyphClass: 2
Flags: W
HStem: -12 38<233.192 346.615> 0 21G<89 119.167> 428 40<239.821 348.329> 674 38<8 88.8713>
VStem: 89 84<88.4446 351.604 400 674> 398 102<113.297 338.241>
AnchorPoint: "Bottom" 268 1 basechar 0
LayerCount: 2
Fore
SplineSet
290 26 m 0xbc
 386 26 398 128.463768116 398 228 c 256
 398 326.550724638 386 428 290 428 c 0
 226 428 173 338.763005781 173 262 c 2
 173 170 l 2
 173 94.6174496644 222 26 290 26 c 0xbc
89 0 m 1x7c
 89 652 l 2
 89 667 82 674 67 674 c 2
 8 674 l 1
 8 712 l 1
 173 712 l 1
 173 400 l 1
 180 398 l 1
 202 431.25 238 468 298 468 c 0
 437 468 500 339 500 228 c 256
 500 97 431 -12 291 -12 c 0xbc
 231 -12 184 16.6666666667 148 74 c 1
 143 72 l 1
 110 0 l 1
 89 0 l 1x7c
EndSplineSet
Validated: 1
EndChar

StartChar: c
Encoding: 99 99 70
Width: 566
GlyphClass: 2
Flags: W
HStem: -12 38<229.357 396.466> 262 105<409.029 457.494> 432 36<232.565 427.214>
VStem: 66 102<119.571 339.501> 458 56<320 408.794> 478 35<104.767 152>
AnchorPoint: "Bottom" 290 13 basechar 0
AnchorPoint: "Top" 308 508 basechar 0
LayerCount: 2
Fore
SplineSet
293 -12 m 0xf4
 220 -12 164 12 125 58 c 0
 86 104 66 161 66 228 c 256
 66 295 85 352 125 398 c 0
 166.904761905 444 225.571428571 468 301 468 c 0
 431.108374384 468 514 441 514 331 c 0
 514 309 508 292 497 280 c 0
 486 268 472 262 456 262 c 0
 439 262 426 267 415 277 c 0
 404 287 398 299 398 313 c 0
 398 340 412 358 439 367 c 0
 452 370 458 375 458 383 c 0xf8
 458 421.203125 369.195804196 432 305 432 c 0
 184.992248062 432 168 335.719726562 168 228 c 256
 168 127 183 26 298 26 c 0
 401.079427083 26 464.233723958 72.6494140625 478 152 c 1
 513 152 l 1
 495.487043626 41.8798828125 409.109220297 -12 293 -12 c 0xf4
EndSplineSet
Validated: 1
EndChar

StartChar: d
Encoding: 100 100 71
Width: 566
GlyphClass: 2
Flags: W
HStem: -12 38<214.853 329.643> 0 38<477.129 555> 430 38<215.043 320.392> 674 38<300 392.963>
VStem: 66 102<111.08 338.702> 393 84<38 44 87.9081 349.199 400 674>
AnchorPoint: "Bottom" 275 1 basechar 0
LayerCount: 2
Fore
SplineSet
269 26 m 0xbc
 341.251968504 26 393 93.3846153846 393 170 c 2
 393 262 l 2
 393 339.466666667 337.346456693 430 269 430 c 0
 178.786407767 430 168 327.112149533 168 228 c 256
 168 128.887850467 178.786407767 26 269 26 c 0xbc
393 0 m 1x7c
 393 44 l 1
 387 47 l 1
 352.853658537 8 312.853658537 -12 267 -12 c 0xbc
 133.330049261 -12 66 98 66 228 c 260
 66 339 127.373737374 468 262 468 c 0
 315.700787402 468 362.566929134 432.189873418 386 399 c 1
 393 400 l 1
 393 652 l 2
 393 667 391 674 386 674 c 2
 300 674 l 1
 300 712 l 1
 477 712 l 1
 477 60 l 2
 477 45 484 38 499 38 c 2
 555 38 l 1
 555 0 l 1
 393 0 l 1x7c
EndSplineSet
Validated: 1
EndChar

StartChar: e
Encoding: 101 101 72
Width: 566
GlyphClass: 2
Flags: W
HStem: -12 38<236.921 405.826> 222 40<168 414> 430 38<225.794 357.132>
VStem: 66 102<115.036 222 262 338.187> 414 100<262 345.213> 470 32<97.7194 155>
AnchorPoint: "Bottom" 303 1 basechar 0
AnchorPoint: "Top" 297 508 basechar 0
LayerCount: 2
Fore
SplineSet
168 262 m 1xf8
 414 262 l 1
 414 346 389.4 430 291 430 c 256
 195.101694915 430 168 346 168 262 c 1xf8
66 228 m 0
 66 366 147.769911504 468 297 468 c 0
 451.03125 468 514 363 514 222 c 1xf8
 168 222 l 1
 168 103 194.878378378 26 321 26 c 0
 420.333333333 26 459.493589744 74 470 155 c 1
 502 155 l 1xf4
 486.571428571 39 438.357142857 -12 313 -12 c 0
 153.776859504 -12 66 75 66 228 c 0
EndSplineSet
Validated: 1
EndChar

StartChar: f
Encoding: 102 102 73
Width: 566
GlyphClass: 2
Flags: W
HStem: 0 38<47 177.871 262.147 436> 418 38<56 178 262 516> 686 38<317.032 482.027>
VStem: 178 84<38.1287 418 456 622.408> 483 58<601 682.472>
LayerCount: 2
Fore
SplineSet
492 561 m 0
 467 561 449 578 449 603 c 0
 449 620 455 631 467 638 c 0
 478 644 483 652 483 662 c 0
 483 677.75 466 686 432 686 c 0
 317.807617188 686 262 652.873046875 262 588 c 2
 262 456 l 1
 516 456 l 1
 516 418 l 1
 262 418 l 1
 262 60 l 2
 262 45 270 38 288 38 c 2
 436 38 l 1
 436 0 l 1
 47 0 l 1
 47 38 l 1
 156 38 l 2
 171 38 178 45 178 60 c 2
 178 418 l 1
 56 418 l 1
 56 456 l 1
 178 456 l 1
 178 525 l 2
 178 671 282.563476562 724 434 724 c 0
 514 724 541 678 541 617 c 0
 541 585 524 561 492 561 c 0
EndSplineSet
Validated: 1
EndChar

StartChar: g
Encoding: 103 103 74
Width: 566
GlyphClass: 2
Flags: W
HStem: -238 38<181.618 430.084> -27 74<165.262 462.514> 139 38<222.915 325.18> 430 38<221.949 328.417> 447 22<454.752 511.538>
VStem: 66 60<-161.33 -67.1498> 77 48<50.57 98.1486> 85 93<225.31 383.59> 371 93<227.096 379.065> 479 57<-162.803 -41.1478> 480 84<354.916 418.321> 513 51<413.356 446.581>
AnchorPoint: "Top" 280 508 basechar 0
LayerCount: 2
Fore
SplineSet
479 -108 m 0xe4c0
 479 -55 465 -27 403 -27 c 2
 283 -27 l 2
 215 -27 170 -38 147 -63 c 0
 133 -78 126 -97 126 -120 c 0
 126 -181 226 -200 302 -200 c 0
 391.847715736 -200 479 -189 479 -108 c 0xe4c0
276 177 m 0
 337 177 371 237 371 304 c 0
 371 371 337 430 276 430 c 0
 212 430 178 372 178 304 c 0xf180
 178 235 212 177 276 177 c 0
287 139 m 0
 242.376953125 139 125 108.1875 125 71 c 0xea90
 125 53.4327651515 149.333007812 45 198 45 c 2
 259 47 l 1
 370 47 l 2
 461 47 536 9.09090909091 536 -92 c 0
 536 -189 457.666666667 -238 301 -238 c 0
 197 -238 66 -215 66 -122 c 0xecc0
 66 -69 119 -31 170 -24 c 1
 170 -20 l 1
 108 -6 77 20 77 60 c 0xea80
 77 123 134 142 204 150 c 1
 204 153 l 1
 125 182 86 232 85 304 c 0
 85 406 172 468 274 468 c 0xf180
 343 468 395 437 412 414 c 1
 425 450 452 469 494 469 c 0
 536 469 561 448 564 405 c 2
 564 397 l 1
 560 365 546 350 523 350 c 0
 496 350 481 362 480 387 c 0xe9a0
 480 402 485 411 496 416 c 0
 507 421 513 426 513 431 c 0
 513 442 506 447 492 447 c 0xe890
 457 447 435 426 431 395 c 1
 453 369 464 338 464 303 c 0
 464 210 379 139 287 139 c 0
EndSplineSet
Validated: 1
EndChar

StartChar: h
Encoding: 104 104 75
Width: 566
GlyphClass: 2
Flags: W
HStem: 0 38<28 88.8713 173.165 257 316 392.853 477.129 541> 430 38<265.458 369.788> 674 38<8 88.8713>
VStem: 89 84<38.2525 331.874 375 674> 393 84<38.1287 409.455>
AnchorPoint: "Bottom" 286 0 basechar 0
AnchorPoint: "Top" 265 752 basechar 0
LayerCount: 2
Fore
SplineSet
28 0 m 1
 28 38 l 1
 67 38 l 2
 82 38 89 45 89 60 c 2
 89 652 l 2
 89 667 82 674 67 674 c 2
 8 674 l 1
 8 712 l 1
 173 712 l 1
 173 375 l 5
 178 374 l 5
 209 421.886792453 260 468 331 468 c 0
 431.375 468 477 417 477 320 c 2
 477 60 l 2
 477 45 484 38 499 38 c 2
 541 38 l 1
 541 0 l 1
 316 0 l 1
 316 38 l 1
 367 38 l 2
 385 38 393 45 393 60 c 2
 393 338 l 2
 393 399 368.012987013 430 319 430 c 0
 247.553191489 430 173 322.477272727 173 264 c 6
 173 60 l 2
 173 45 182 38 200 38 c 2
 257 38 l 1
 257 0 l 1
 28 0 l 1
EndSplineSet
Validated: 1
EndChar

StartChar: j
Encoding: 106 106 77
Width: 566
GlyphClass: 2
Flags: W
HStem: -238 38<166.163 347.095> 418 38<92 392.871> 571 121<387.064 472.935>
VStem: 62 57<-165.347 -80> 369.5 121<588.565 674.436> 393 84<-156.691 418>
LayerCount: 2
Fore
SplineSet
109 -39 m 0xf4
 135 -39 154 -55 154 -81 c 0
 154 -98 148 -110 137 -117 c 0
 125 -124 119 -129 119 -135 c 0
 119 -180 213.994140625 -200 277 -200 c 0
 354.333007812 -200 393 -157 393 -70 c 2
 393 396 l 2
 393 411 386 418 371 418 c 2
 92 418 l 1
 92 456 l 1
 477 456 l 1
 477 -73 l 2
 477 -169 442.349609375 -238 279 -238 c 0
 169.522460938 -238 62 -200 62 -95 c 0
 62 -65 79 -39 109 -39 c 0xf4
EndSplineSet
Refer: 163 729 S 1 0 0 1 147 36 2
Validated: 1
Colour: ffff
EndChar

StartChar: k
Encoding: 107 107 78
Width: 566
GlyphClass: 2
Flags: W
HStem: 0 26<8 87.8336 174.531 250 330 387.832 506.237 549> 430 26<328 399.692 476.572 534> 686 26<8 87.8336>
VStem: 89 84<26.1291 165 217 686>
DStem2: 173 217 173 165 0.769481 0.638669<0 74.0857 160.768 300.89> 323 288 256 233 0.585233 -0.810865<5.38696 237.975>
AnchorPoint: "Bottom" 280 0 basechar 0
LayerCount: 2
Fore
SplineSet
8 0 m 1
 8 26 l 1
 67 26 l 2
 82 26 89 33 89 48 c 2
 89 664 l 2
 89 679 82 686 67 686 c 2
 8 686 l 1
 8 712 l 1
 173 712 l 1
 173 217 l 1
 372 379 l 2
 399 401 400 407 400 415 c 0
 400 426 383 430 356 430 c 2
 328 430 l 1
 328 456 l 1
 534 456 l 1
 534 430 l 1
 502 430 l 2
 495 430 489 428 473 414 c 2
 323 288 l 1
 489 58 l 2
 507 34 520 26 539 26 c 2
 549 26 l 1
 549 0 l 1
 330 0 l 1
 330 26 l 1
 354 26 l 2
 379 26 388 32 388 41 c 0
 388 50 378 64 367 79 c 2
 256 233 l 1
 173 165 l 1
 173 49 l 2
 173 33 181 26 199 26 c 2
 250 26 l 1
 250 0 l 1
 8 0 l 1
EndSplineSet
Validated: 1
EndChar

StartChar: l
Encoding: 108 108 79
Width: 566
GlyphClass: 2
Flags: W
HStem: 0 38<36 240.853 325.165 530> 674 38<46 240.853>
VStem: 241 84<38.2525 673.871>
AnchorPoint: "Bottom" 285 0 basechar 0
AnchorPoint: "Top" 285 752 basechar 0
LayerCount: 2
Fore
SplineSet
36 0 m 1
 36 38 l 5
 215 38 l 6
 233 38 241 45 241 60 c 6
 241 652 l 2
 241 667 233 674 215 674 c 2
 46 674 l 1
 46 712 l 1
 325 712 l 1
 325 60 l 6
 325 45 334 38 352 38 c 6
 530 38 l 5
 530 0 l 1
 36 0 l 1
EndSplineSet
Validated: 1
EndChar

StartChar: m
Encoding: 109 109 80
Width: 566
GlyphClass: 2
Flags: W
HStem: 0 38<8 43.8713 128.201 172 196 242.836 327.165 364 388 437.836 522.129 559> 418 38<8 43.8713> 428 40<175.565 261 364.849 461.694>
VStem: 44 84<38.7449 385.668 406 418> 243 84<38.2525 390.35> 438 84<38.1854 418.675>
LayerCount: 2
Fore
SplineSet
8 0 m 1xbc
 8 38 l 1
 22 38 l 2
 37 38 44 45 44 60 c 2
 44 396 l 2
 44 411 37 418 22 418 c 2
 8 418 l 1
 8 456 l 1
 128 456 l 1xdc
 128 406 l 1
 133 405 l 1
 162.634408602 447 197.967741935 468 239 468 c 0
 283 468 311 441 321 404 c 1
 329 404 l 1
 351.352941176 446 381.529411765 468 424 468 c 0
 497.242105263 468 522 419 522 320 c 2
 522 60 l 2
 522 45 529 38 544 38 c 2
 559 38 l 1
 559 0 l 1
 388 0 l 1
 388 38 l 1
 412 38 l 2
 429 38 438 45 438 60 c 2
 438 338 l 2
 438 398 424 428 396 428 c 0
 365.593220339 428 327 371 327 314 c 2
 327 60 l 2
 327 45 336 38 354 38 c 2
 364 38 l 1
 364 0 l 1
 196 0 l 1
 196 38 l 1
 217 38 l 2
 234 38 243 45 243 60 c 2
 243 338 l 2
 243 398 232 428 209 428 c 0
 176.838235294 428 128 380 128 314 c 2
 128 60 l 2
 128 45 139 38 161 38 c 2
 172 38 l 1
 172 0 l 1
 8 0 l 1xbc
EndSplineSet
Validated: 1
EndChar

StartChar: n
Encoding: 110 110 81
Width: 566
GlyphClass: 2
Flags: W
HStem: 0 36<26 89.8146 174.237 241 315 391.763 476.185 540> 420 36<26 89.8146> 426 42<257.845 371.149>
VStem: 90 84<36.2525 327.811 373 420> 392 84<36.2525 406.523>
AnchorPoint: "Bottom" 277 0 basechar 0
AnchorPoint: "Top" 267 508 basechar 0
LayerCount: 2
Fore
SplineSet
332 468 m 0xb8
 432 468 476 417 476 320 c 2
 476 58 l 2
 476 43 483 36 498 36 c 2
 540 36 l 1
 540 0 l 1
 315 0 l 1
 315 36 l 1
 365 36 l 2
 383 36 392 43 392 58 c 2
 392 338 l 2
 392 396.666992188 366 426 315 426 c 0xb8
 246 426 174 327.208007812 174 247 c 2
 174 58 l 2
 174 43 183 36 201 36 c 2
 241 36 l 1
 241 0 l 1
 26 0 l 1
 26 36 l 1
 68 36 l 2
 83 36 90 43 90 58 c 2
 90 398 l 2
 90 413 83 420 68 420 c 2
 26 420 l 1
 26 456 l 1
 174 456 l 1xd8
 174 373 l 1
 179 373 l 1
 210 421.857421875 261 468 332 468 c 0xb8
EndSplineSet
Validated: 1
EndChar

StartChar: o
Encoding: 111 111 82
Width: 566
GlyphClass: 2
Flags: W
HStem: -12 38<225.397 340.33> 430 38<225.398 340.332>
VStem: 66 102<121.853 334.142> 398 102<121.977 334.028>
AnchorPoint: "Bottom" 282 1 basechar 0
AnchorPoint: "Top" 282 508 basechar 0
LayerCount: 2
Fore
SplineSet
283 26 m 256
 359.666666667 26 398 93.0185546875 398 228 c 260
 398 362.981445312 359.666666667 430 283 430 c 256
 205.76119403 430 168 362.981445312 168 228 c 256
 168 93.0185546875 205.76119403 26 283 26 c 256
283 -12 m 256
 155.432771217 -12 66 91.823140812 66 228 c 256
 66 364.152427136 155.438284349 468 283 468 c 256
 409.698790808 468 500 363.62845988 500 228 c 260
 500 92.3936662863 409.686915826 -12 283 -12 c 256
EndSplineSet
Validated: 1
EndChar

StartChar: p
Encoding: 112 112 83
Width: 566
GlyphClass: 2
Flags: W
HStem: -230 38<9 91.8713 176.037 245> -12 38<239.851 350.893> 418 38<9 91.8713> 430 38<249.302 353.411>
VStem: 92 84<-192 34 90.7686 349.199 400 418> 398 102<109.112 341.198>
AnchorPoint: "Top" 263 508 basechar 0
LayerCount: 2
Fore
SplineSet
301 26 m 0xdc
 387.640776699 26 398 128.887850467 398 228 c 256
 398 327.112149533 387.640776699 430 301 430 c 0
 232.102362205 430 176 339.466666667 176 262 c 2
 176 170 l 2
 176 93.3846153846 228.165354331 26 301 26 c 0xdc
9 -230 m 1
 9 -192 l 1
 70 -192 l 2
 85 -192 92 -185 92 -170 c 2
 92 396 l 2
 92 411 85 418 70 418 c 2
 9 418 l 1
 9 456 l 1
 176 456 l 1xec
 176 400 l 1
 183 398 l 1
 207.606299213 431.25 253.866141732 468 308 468 c 0
 439.878787879 468 500 339 500 228 c 256
 500 98 434.009852217 -12 303 -12 c 0
 256.764227642 -12 216.430894309 4.61016949153 182 37 c 1
 176 34 l 1
 176 -170 l 2
 176 -185 178 -192 183 -192 c 2
 245 -192 l 1
 245 -230 l 1
 9 -230 l 1
EndSplineSet
Validated: 1
EndChar

StartChar: q
Encoding: 113 113 84
Width: 566
GlyphClass: 2
Flags: W
HStem: -230 38<317 395.835 480.129 564> -12 38<215.797 331.728> 430 38<216.27 324.138> 436 20G<450.22 480>
VStem: 66 102<109.312 336.248> 396 84<-191.747 44 91.1743 353.95>
AnchorPoint: "Top" 269 508 basechar 0
LayerCount: 2
Fore
SplineSet
317 -230 m 1xdc
 317 -192 l 1
 369 -192 l 2
 387 -192 396 -185 396 -170 c 2
 396 44 l 1
 390 47 l 1
 355.402985075 8 314.432835821 -12 268 -12 c 0
 133 -12 66 98 66 228 c 260
 66 338 134 468 269 468 c 0xec
 340.151898734 468 393.746835443 420.905660377 415 372 c 1
 423 374 l 1
 459 456 l 1
 480 456 l 1
 480 -170 l 2
 480 -185 487 -192 502 -192 c 2
 564 -192 l 1
 564 -230 l 1
 317 -230 l 1xdc
271 26 m 0
 343.080291971 26 396 94.3076923077 396 170 c 2
 396 278 l 2
 396 348.43902439 336.693430657 430 271 430 c 0
 180 430 168 326.168224299 168 228 c 256
 168 129.831775701 180 26 271 26 c 0
EndSplineSet
Validated: 1
EndChar

StartChar: r
Encoding: 114 114 85
Width: 566
GlyphClass: 2
Flags: W
HStem: 0 38<9 132.871 217.165 349> 418 38<8 132.871> 427 41<339.436 485.364>
VStem: 133 84<38.2525 289.357 336 418> 486 56<357 423.656>
AnchorPoint: "Bottom" 177 0 basechar 0
AnchorPoint: "Top" 323 508 basechar 0
LayerCount: 2
Fore
SplineSet
9 0 m 1xb8
 9 38 l 1
 111 38 l 2
 126 38 133 45 133 60 c 2
 133 396 l 2
 133 411 126 418 111 418 c 2
 8 418 l 1
 8 456 l 1
 217 456 l 1xd8
 217 336 l 1
 222 335 l 1
 269.815146169 431.75 350.390755508 468 415 468 c 0
 525.818359375 468 542 426.731445312 542 374 c 0
 542 340 520 305 484 305 c 0
 458 305 437 318 437 343 c 0
 437 362 446 376 464 386 c 0
 479 393 486 400 486 409 c 0
 486 424.315429688 460.928710938 427 408 427 c 0
 319.272969659 427 217 322.478515625 217 179 c 2
 217 60 l 2
 217 45 226 38 244 38 c 2
 349 38 l 1
 349 0 l 1
 9 0 l 1xb8
EndSplineSet
Validated: 1
EndChar

StartChar: s
Encoding: 115 115 86
Width: 566
GlyphClass: 2
Flags: W
HStem: -12 38<236.065 415.42> 430 38<163.524 357.276> 438 20G<441 462>
VStem: 78 62<328.42 409.925> 87 19<-12 9 170.196 187> 435 60<44.191 143.685> 443 19<438 458>
DStem2: 245 295 216 207 0.963267 -0.268547<-108.529 220.478>
AnchorPoint: "Bottom" 282 1 basechar 0
AnchorPoint: "Top" 282 508 basechar 0
LayerCount: 2
Fore
SplineSet
78 340 m 0xd4
 78 444 168.01171875 468 256 468 c 0xd4
 310 468 356 457 391 436 c 0
 409 425 420 420 424 420 c 0
 434 420 440 426 441 438 c 2
 443 458 l 1
 462 458 l 1xb2
 462 307 l 1
 443 307 l 1
 429 341 l 1
 403 400 344 430 257 430 c 0
 233.599609375 430 140 430 140 372 c 0xd2
 140 330 173.091928725 315.134259957 245 295 c 2
 395 253 l 2
 452 237 495 196 495 124 c 0
 495 29 440 -12 345 -12 c 0
 307 -12 274 -6.857421875 246 0 c 0
 201.987304688 13.3779296875 167.630859375 42 149 42 c 0
 128 42 115 30.685546875 110 9 c 2
 106 -12 l 1
 87 -12 l 1
 87 187 l 1
 106 187 l 1xcc
 148.354492188 96 199.78515625 26 345 26 c 0
 402 26 435 45 435 94 c 0
 435 128 417 150 381 161 c 2
 216 207 l 2
 126.706054688 232 78 276 78 340 c 0xd4
EndSplineSet
Validated: 1
EndChar

StartChar: t
Encoding: 116 116 87
Width: 566
GlyphClass: 2
Flags: W
HStem: -12 38<290.15 450.462> 418 38<56 176.958 262 516>
VStem: 178 84<49.7131 418> 232 30<536.122 648> 496 32<81.8169 178>
LayerCount: 2
Fore
SplineSet
344 -12 m 0xe8
 203.118421053 -12 178 35 178 106 c 2
 178 418 l 1xe8
 56 418 l 1
 56 456 l 1
 173 456 l 2
 193 456 232 559 232 612 c 2
 232 648 l 1
 262 648 l 1
 262 456 l 1xd8
 516 456 l 1
 516 418 l 1
 262 418 l 1
 262 105 l 2
 262 52.3333333333 296 26 364 26 c 0
 461.406896552 26 496 59.6393442623 496 178 c 1
 528 178 l 1
 528 31.2027580192 486.563240041 -12 344 -12 c 0xe8
EndSplineSet
Validated: 1
EndChar

StartChar: u
Encoding: 117 117 88
Width: 566
GlyphClass: 2
Flags: W
HStem: -12 38<198.036 309.066> 0 38<477.181 540> 418 38<8 88.8772 324 392.847>
VStem: 89 84<49.8905 418> 393 84<38.5165 93 120.971 417.747>
AnchorPoint: "Bottom" 289 1 basechar 0
AnchorPoint: "Top" 289 508 basechar 0
LayerCount: 2
Fore
SplineSet
240 -12 m 0xb8
 130.020683594 -12 89 33.1728515625 89 136 c 2
 89 396 l 2
 89 411 82.3181818182 418 68 418 c 2
 8 418 l 1
 8 456 l 1
 173 456 l 1
 173 119 l 2
 173 57 200.013449367 26 253 26 c 0xb8
 284.961914062 26 315.206054688 42.4794921875 341.14453125 74 c 0
 368.038157873 106.049804688 393 157.743164062 393 202 c 6
 393 396 l 6
 393 411 384.692307692 418 366 418 c 2
 324 418 l 1
 324 456 l 1
 477 456 l 5
 477 60 l 6
 477 45 486.863464355 38 508 38 c 2
 540 38 l 1
 540 0 l 1
 393 0 l 5x78
 393 93 l 5
 388 93 l 5
 368.014376063 51.5 318.402795493 -12 240 -12 c 0xb8
EndSplineSet
Validated: 1
EndChar

StartChar: v
Encoding: 118 118 89
Width: 566
GlyphClass: 2
Flags: W
HStem: -12 21G<266.561 318.355> 430 26<8 70.5878 178.369 252 362 426.549 494.062 558>
DStem2: 188 373 91 380 0.426797 -0.904348<-37.0882 298.377> 315 103 310 -12 0.385471 0.92272<0 318.152>
AnchorPoint: "Bottom" 295 0 basechar 0
AnchorPoint: "Top" 301 508 basechar 0
LayerCount: 2
Fore
SplineSet
223 430 m 2
 190.802734375 430 176.576171875 425.133789062 176.576171875 409.0234375 c 0
 176.576171875 400.48828125 180.5703125 388.796875 188 373 c 2
 315 103 l 1
 414 340 l 2
 425 367 431 386 431 400 c 0
 431 422 417 430 391 430 c 2
 362 430 l 1
 362 456 l 1
 558 456 l 1
 558 430 l 1
 536 430 l 2
 499.65234375 430 493.529296875 427.323242188 470 371 c 2
 310 -12 l 1
 276 -12 l 1
 91 380 l 2
 71.2587890625 421.830078125 66.6669921875 430 39 430 c 2
 8 430 l 1
 8 456 l 1
 252 456 l 1
 252 430 l 1
 223 430 l 2
EndSplineSet
Validated: 1
EndChar

StartChar: w
Encoding: 119 119 90
Width: 566
GlyphClass: 2
Flags: W
HStem: -12 21G<167.517 206.144 369.706 404.849> 430 26<13 51.2725 141.933 188 233 273.53 337.781 379 427 472.307 526.234 553>
VStem: 276 61<310.312 429.791>
DStem2: 142 373 68 371 0.264396 -0.964414<-26.3847 237.243> 204 144 200 -12 0.293647 0.955914<0 169.815> 342 373 294 294 0.255893 -0.966705<64.0869 244.008> 404 137 399 -12 0.280674 0.959803<0 271.278>
AnchorPoint: "Bottom" 307 0 basechar 0
AnchorPoint: "Top" 307 508 basechar 0
LayerCount: 2
Fore
SplineSet
175 430 m 2
 147.727539062 430 137.717773438 418.793945312 137.717773438 399.543945312 c 0
 137.717773438 391.8984375 139.296875 382.984375 142 373 c 2
 204 144 l 1
 265 340 l 2
 273 367 276 387 276 400 c 0
 276 425 266.513671875 430 249 430 c 2
 233 430 l 1
 233 456 l 1
 379 456 l 1
 379 430 l 1
 351 430 l 2
 341 430 337 422 337 408 c 0
 337 399 339 387 342 373 c 2
 404 137 l 1
 464 340 l 2
 471 364 477 384 477 399 c 0
 477 418 467 430 438 430 c 2
 427 430 l 5
 427 456 l 5
 553 456 l 1
 553 430 l 1
 540 430 l 2
 530 430 528 428 511 371 c 2
 399 -12 l 1
 375 -12 l 1
 294 294 l 1
 200 -12 l 1
 173 -12 l 1
 68 371 l 1
 55 425 42 430 33 430 c 2
 13 430 l 1
 13 456 l 1
 188 456 l 1
 188 430 l 1
 175 430 l 2
EndSplineSet
Validated: 1
EndChar

StartChar: x
Encoding: 120 120 91
Width: 566
GlyphClass: 2
Flags: W
HStem: 0 26<29.5 88.2662 151.789 217.5 325.5 369.141 479.866 540.5> 430 26<26.5 78.9917 194.495 240.5 335.5 385.017 452.107 510.5>
DStem2: 125.5 82 175.5 79 0.630012 0.776586<-15.109 165.816 255.196 421.766> 286.5 280 235.5 218 0.621346 -0.783536<-158.852 0 57.4974 237.048>
AnchorPoint: "Bottom" 290.5 0 basechar 0
AnchorPoint: "Top" 290.5 508 basechar 0
LayerCount: 2
Fore
SplineSet
29.5 0 m 1
 29.5 26 l 1
 56 26 l 2
 80.2943982627 26 87.2761900638 34.1203990701 125.5 82 c 2
 235.5 218 l 1
 87.5 407 l 2
 73.4613215149 424.661563255 69.0882352941 430 56.5 430 c 2
 26.5 430 l 1
 26.5 456 l 1
 240.5 456 l 1
 240.5 430 l 1
 214.5 430 l 2
 200.370931239 430 193.145802342 420.386122492 193.145802342 409.017827474 c 0
 193.145802342 402.424247726 195.576312581 395.240487542 200.5 389 c 2
 286.5 280 l 1
 366.5 379 l 2
 377.673609808 392.827342138 385.219961818 405.560861363 385.219961818 414.845767972 c 0
 385.219961818 424.156971283 377.630803736 430 358.5 430 c 2
 335.5 430 l 1
 335.5 456 l 1
 510.5 456 l 1
 510.5 430 l 1
 485.5 430 l 2
 459.893939394 430 446.184601378 413.968739418 420.5 381 c 2
 313.5 247 l 1
 468.5 52 l 2
 483.627391708 32.9687652711 490.090089743 26 517.5 26 c 2
 540.5 26 l 1
 540.5 0 l 1
 325.5 0 l 1
 325.5 26 l 1
 350.5 26 l 2
 363.5 26 369.5 32 369.5 43 c 0
 369.5 49 366.642857143 56 359.5 64 c 2
 260.5 186 l 1
 175.5 79 l 2
 160.705499431 62.1880675357 151.553542962 49.6457110202 151.553542962 40.9943524506 c 0
 151.553542962 30.7911050475 164.28335982 26 195.5 26 c 2
 217.5 26 l 1
 217.5 0 l 1
 29.5 0 l 1
EndSplineSet
Validated: 1
EndChar

StartChar: y
Encoding: 121 121 92
Width: 550
GlyphClass: 2
Flags: W
HStem: -238 38<96.5296 173.426> 430 26<2 50.0486 156.591 237 373 434.444 504.408 540>
VStem: 1 95<-199.418 -119.379>
DStem2: 166 370 74 371 0.403194 -0.915115<-38.3043 326.438> 210 -125 254 -137 0.409468 0.912324<-82.1324 101.132 214.439 573.549>
AnchorPoint: "Bottom" 388 1 basechar 0
AnchorPoint: "Top" 296 508 basechar 0
LayerCount: 2
Fore
SplineSet
105 -238 m 0
 48 -238 1 -200 1 -146 c 0
 1 -114 25 -88 58 -88 c 0
 92 -88 110 -108 110 -138 c 0
 110 -146 108 -156 102 -166 c 0
 98 -173 96 -179 96 -185 c 0
 96 -195 103 -200 117 -200 c 0
 174 -200 190 -166 210 -125 c 2
 252 -33 l 1
 74 371 l 2
 50 424 46 430 15 430 c 2
 2 430 l 1
 2 456 l 1
 237 456 l 1
 237 430 l 1
 201 430 l 2
 165 430 154 421 154 407 c 0
 154 398 161.067516861 381.25811037 166 370 c 2
 297 71 l 1
 422 348 l 2
 430 368 438 388 438 402 c 0
 438 419 429 430 402 430 c 2
 373 430 l 1
 373 456 l 1
 540 456 l 1
 540 430 l 1
 527 430 l 6
 508.538461538 430 507.619318159 428.081638704 482 371 c 2
 254 -137 l 2
 222 -207 196 -238 105 -238 c 0
EndSplineSet
Validated: 1
EndChar

StartChar: z
Encoding: 122 122 93
Width: 550
GlyphClass: 2
Flags: W
HStem: 0 38<167 418.801> 418 38<153.64 387>
VStem: 68 22<279 304.2> 473 22<141 177>
DStem2: 55 28 167 38 0.648215 0.761457<80.2147 512.176>
AnchorPoint: "Bottom" 292 0 basechar 0
AnchorPoint: "Top" 292 508 basechar 0
LayerCount: 2
Fore
SplineSet
55 0 m 1
 55 28 l 1
 387 418 l 1
 228 418 l 2
 147.78696923 418 113.910039994 374.801076287 100 315 c 1
 90 279 l 1
 68 279 l 1
 75 456 l 1
 494 456 l 1
 494 422 l 1
 167 38 l 1
 355 38 l 2
 428.084931758 38 452.963877147 84.9560074893 466 141 c 2
 473 177 l 1
 495 177 l 1
 489 0 l 1
 55 0 l 1
EndSplineSet
Validated: 1
EndChar

StartChar: braceleft
Encoding: 123 123 94
Width: 566
GlyphClass: 2
Flags: W
HStem: -196 26<367.343 394.231> 257 19<163 234.287> 704 26<367.343 394.231>
VStem: 233 65<-104.624 31.6912 501.285 639.019> 272 65<84.3672 210.179 323.173 450.199>
LayerCount: 2
Fore
SplineSet
163 257 m 1xe8
 163 276 l 1
 201 276 229 281 246 290 c 0
 263 299 272 321 272 354 c 0xe8
 272 375 264 408 249 454 c 0
 238 501 233 536 233 561 c 0
 233 641 286 697 391 730 c 1
 403 704 l 1
 353 689 298 671 298 610 c 0xf0
 298 572 337 450 337 405 c 0
 337 333 303 288 235 268 c 1
 235 265 l 1
 303 245 337 200 337 128 c 0xe8
 337 82 298 -38 298 -77 c 0
 298 -138 359 -158 403 -170 c 1
 391 -196 l 1
 286 -163 233 -107 233 -28 c 0xf0
 233 -3 238 32 249 79 c 0
 264 125 272 159 272 180 c 0
 272 213 263 234 246 243 c 0
 229 252 201 257 163 257 c 1xe8
EndSplineSet
Validated: 1
EndChar

StartChar: bar
Encoding: 124 124 95
Width: 566
GlyphClass: 2
Flags: W
HStem: 710 20G<257 309>
VStem: 257 52<-198 730>
LayerCount: 2
Fore
SplineSet
257 730 m 1
 309 730 l 5
 309 -198 l 5
 257 -198 l 1
 257 730 l 1
EndSplineSet
Validated: 1
EndChar

StartChar: braceright
Encoding: 125 125 96
Width: 566
GlyphClass: 2
Flags: W
HStem: -196 26<171.769 198.657> 257 19<331.713 403> 704 26<171.769 198.657>
VStem: 229 65<82.7351 210.179 323.173 450.128> 268 65<-104.633 31.7389 501.203 638.979>
LayerCount: 2
Fore
SplineSet
403 257 m 5xf0
 365 257 337 252 320 243 c 4
 303 234 294 213 294 180 c 4xf0
 294 159 302 125 317 79 c 4
 328 32 333 -3 333 -28 c 4
 333 -107 280 -163 175 -196 c 5
 163 -170 l 5
 206.73396549 -157.505659239 268 -138.155599778 268 -77 c 4xe8
 268 -38.1926616967 229 82.410400557 229 128 c 4
 229 200 263 245 331 265 c 5
 331 268 l 5
 263 288 229 333 229 405 c 4xf0
 229 449.716242985 268 571.851797287 268 610 c 4
 268 670.877946078 212.679707639 688.595528809 163 704 c 5
 175 730 l 5
 280 697 333 641 333 561 c 4xe8
 333 536 328 501 317 454 c 4
 302 408 294 375 294 354 c 4
 294 321 303 299 320 290 c 4
 337 281 365 276 403 276 c 5
 403 257 l 5xf0
EndSplineSet
Validated: 1
EndChar

StartChar: asciitilde
Encoding: 126 126 97
Width: 566
GlyphClass: 2
Flags: W
HStem: 167 67<396.389 505.352> 287 67<60.6476 163.802>
VStem: 18 37<199.078 279.931> 511 37<241.069 321.922>
LayerCount: 2
Fore
SplineSet
548 269 m 0
 548 207 499 167 433 167 c 0
 397.222222222 167 343.555555556 188 318 200 c 0
 282 215 212 244 170 262 c 0
 147.894736842 273 124.210526316 287 95 287 c 0
 71 287 55 267 55 241 c 0
 55 216 69 197 97 182 c 1
 85 160 l 1
 40 180 18 210 18 252 c 0
 18 314 67 354 133 354 c 0
 170.980861244 354 234.282296651 333 322 290 c 0
 395.177514793 253 445.431952663 234 471 234 c 0
 495 234 511 254 511 280 c 0
 511 305 497 324 469 339 c 1
 481 361 l 1
 526 341 548 311 548 269 c 0
EndSplineSet
Validated: 1
EndChar

StartChar: circumflex
Encoding: 710 710 160
Width: 566
GlyphClass: 2
Flags: W
HStem: 508 164
VStem: 152 262
LayerCount: 2
Fore
SplineSet
303 672 m 1
 327 603.333007812 364 553 414 521 c 1
 405 508 l 1
 359.666992188 531.333007812 319 562 283 600 c 1
 247 562 206.333007812 531.333007812 161 508 c 1
 152 521 l 1
 202 553 239 603.333007812 263 672 c 1
 303 672 l 1
EndSplineSet
Validated: 1
EndChar

StartChar: tilde
Encoding: 732 732 161
Width: 566
GlyphClass: 2
Flags: W
HStem: 553 59<298.554 392.591> 597 58<173.409 267.446>
VStem: 143 24<553 584.45> 399 24<625.535 655>
LayerCount: 2
Fore
SplineSet
423 655 m 1x70
 423 601 395 553 342 553 c 0xb0
 320 553 296 561 268 575 c 0
 241 590 219 597 203 597 c 0x70
 184 597 172 582 167 553 c 1
 143 553 l 1xb0
 143 607 171 655 224 655 c 0x70
 246 655 270 648 298 634 c 0
 325 619 347 612 363 612 c 0xb0
 382 612 394 626 399 655 c 1
 423 655 l 1x70
EndSplineSet
Validated: 1
EndChar

StartChar: breve
Encoding: 728 728 162
Width: 566
GlyphClass: 2
Flags: W
HStem: 523 45<199.444 363.084>
VStem: 143 24<617.994 668> 399 24<621.652 668>
LayerCount: 2
Fore
SplineSet
283 523 m 256
 174.905273438 523 143 595.58984375 143 668 c 1
 167 668 l 1
 175.45703125 610.91796875 184.077148438 568 283 568 c 256
 373.952148438 568 390.541015625 610.903320312 399 668 c 1
 423 668 l 1
 423 595.663085938 383.056640625 523 283 523 c 256
EndSplineSet
Validated: 1
EndChar

StartChar: dotaccent
Encoding: 729 729 163
Width: 566
GlyphClass: 2
Flags: W
HStem: 535 121<240.064 325.935>
VStem: 222.5 121<552.565 638.436>
LayerCount: 2
Fore
SplineSet
282.5 535 m 256
 265.5 535 251.5 540 239.5 552 c 0
 227.5 564 222.5 579 222.5 596 c 256
 222.5 613 227.5 627 239.5 639 c 0
 251.5 651 265.5 656 282.5 656 c 256
 299.5 656 314.5 651 326.5 639 c 0
 338.5 627 343.5 613 343.5 596 c 256
 343.5 579 338.5 564 326.5 552 c 0
 314.5 540 299.5 535 282.5 535 c 256
EndSplineSet
Validated: 1
EndChar

StartChar: ring
Encoding: 730 730 164
Width: 566
GlyphClass: 2
Flags: W
HStem: 496 29<243.241 322.762> 668 29<242.019 323.982>
VStem: 182 34<549.429 643.741> 350 34<549.431 643.74>
LayerCount: 2
Fore
SplineSet
283 496 m 0
 227.1875 496 182 541.76171875 182 598 c 0
 182 653.145507812 227.2890625 697 283 697 c 0
 338.721679688 697 384 653.1484375 384 598 c 0
 384 541.758789062 338.818359375 496 283 496 c 0
283 525 m 0
 320.252929688 525 350 556.150390625 350 597 c 0
 350 638.026367188 320.7890625 668 283 668 c 0
 245.206054688 668 216 638.03515625 216 597 c 0
 216 556.137695312 245.754882812 525 283 525 c 0
EndSplineSet
Validated: 1
EndChar

StartChar: hungarumlaut
Encoding: 733 733 165
Width: 566
GlyphClass: 2
Flags: W
HStem: 493 205
VStem: 130.5 305
LayerCount: 2
Fore
SplineSet
407.5 698 m 0
 426.5 698 435.5 686 435.5 662 c 0
 435.5 644 426.5 627 407.5 611 c 2
 279.5 493 l 1
 266.5 506 l 1
 358.5 661 l 2
 373.5 686 390.5 698 407.5 698 c 0
271.5 698 m 0
 290.5 698 299.5 686 299.5 662 c 0
 299.5 644 290.5 627 271.5 611 c 2
 143.5 493 l 1
 130.5 506 l 1
 222.5 661 l 2
 237.5 686 254.5 698 271.5 698 c 0
EndSplineSet
Validated: 1
EndChar

StartChar: ogonek
Encoding: 731 731 166
Width: 566
GlyphClass: 2
Flags: W
HStem: -223 49<260.571 332.683>
VStem: 195 60<-169.579 -81.9561>
LayerCount: 2
Fore
SplineSet
276 -223 m 4
 230 -223 195 -189 195 -143 c 4
 195 -96 240 -49 268 -28 c 4
 285 -15 306 0 333 16 c 5
 343 2 l 5
 313 -20 291 -40 277 -60 c 4
 263 -80 255 -102 255 -127 c 4
 255 -158 270 -174 299 -174 c 4
 318 -174 338 -163 357 -140 c 5
 371 -150 l 5
 346 -199 314 -223 276 -223 c 4
EndSplineSet
Validated: 1
EndChar

StartChar: caron
Encoding: 711 711 167
Width: 566
GlyphClass: 2
Flags: W
HStem: 508 164
VStem: 151 264
LayerCount: 2
Fore
SplineSet
151 661 m 1
 164 672 l 1
 283 572 l 1
 402 672 l 1
 415 661 l 1
 303 508 l 1
 263 508 l 1
 151 661 l 1
EndSplineSet
Validated: 1
EndChar

StartChar: uni00AD
Encoding: 173 173 168
Width: 566
GlyphClass: 2
Flags: W
HStem: 241 43<33 533>
LayerCount: 2
Fore
SplineSet
33 241 m 5
 33 284 l 5
 533 284 l 5
 533 241 l 5
 33 241 l 5
EndSplineSet
Validated: 1
Colour: ffff
EndChar

StartChar: uni02BB
Encoding: 699 699 331
Width: 566
GlyphClass: 2
Flags: W
HStem: 499 116<276.738 327.984>
VStem: 221.5 45<564 652.254>
LayerCount: 2
Fore
SplineSet
344.5 559 m 4
 344.5 540 339.5 525 328.5 515 c 4
 317.5 505 305.5 499 289.5 499 c 4
 269.5 499 251.5 507 239.5 521 c 4
 227.5 535 221.5 553 221.5 575 c 4
 221.5 608 231.5 639 253.5 667 c 4
 275.5 695 301.5 717 330.5 731 c 5
 342.5 719 l 5
 321.5 710 304.5 698 289.5 683 c 4
 274.5 668 266.5 654 266.5 641 c 4
 266.5 632 269.5 625 276.5 620 c 4
 281.5 617 291.5 615 304.5 615 c 4
 316.5 615 326.5 610 333.5 598 c 4
 340.5 586 344.5 573 344.5 559 c 4
EndSplineSet
Validated: 1
EndChar

StartChar: uni02BC
Encoding: 700 700 332
Width: 566
GlyphClass: 2
Flags: W
HStem: 604 116<238.016 289.262>
VStem: 299.5 45<555.68 651>
LayerCount: 2
Fore
SplineSet
221.5 660 m 0
 221.5 679 226.5 694 237.5 704 c 0
 248.5 714 260.5 720 276.5 720 c 0
 296.5 720 314.5 712 326.5 697 c 0
 338.5 682 344.5 663 344.5 639 c 0
 344.5 603 334.5 570 312.5 540 c 0
 290.5 510 264.5 487 235.5 472 c 1
 223.5 484 l 1
 244.5 494 262.5 508 277.5 525 c 0
 292.5 542 299.5 559 299.5 574 c 0
 299.5 585 296.5 593 289.5 598 c 0
 284.5 602 274.5 604 261.5 604 c 0
 249.5 604 239.5 609 232.5 621 c 0
 225.5 633 221.5 646 221.5 660 c 0
EndSplineSet
Validated: 1
EndChar

StartChar: uni02BD
Encoding: 701 701 333
Width: 566
GlyphClass: 2
Flags: W
HStem: 604 116<276.738 327.984>
VStem: 221.5 45<555.68 651>
LayerCount: 2
Fore
SplineSet
344.5 660 m 0
 344.5 646 340.5 633 333.5 621 c 0
 326.5 609 316.5 604 304.5 604 c 0
 291.5 604 281.5 602 276.5 598 c 0
 269.5 593 266.5 585 266.5 574 c 0
 266.5 559 274.5 542 289.5 525 c 0
 304.5 508 321.5 494 342.5 484 c 1
 330.5 472 l 1
 301.5 487 275.5 510 253.5 540 c 0
 231.5 570 221.5 603 221.5 639 c 0
 221.5 663 227.5 682 239.5 697 c 0
 251.5 712 269.5 720 289.5 720 c 0
 305.5 720 317.5 714 328.5 704 c 0
 339.5 694 344.5 679 344.5 660 c 0
EndSplineSet
Validated: 1
EndChar

StartChar: uni02BE
Encoding: 702 702 334
Width: 566
GlyphClass: 2
Flags: W
HStem: 500 30<223.5 274.064> 688 30<223.5 274.064>
VStem: 307.5 35<559.197 658.803>
LayerCount: 2
Fore
SplineSet
223.5 500 m 1
 223.5 530 l 1
 247.5 530 267.5 537 283.5 552 c 0
 299.5 567 307.5 586 307.5 609 c 256
 307.5 632 299.5 651 283.5 666 c 0
 267.5 681 247.5 688 223.5 688 c 1
 223.5 718 l 1
 254.5 718 282.5 708 306.5 687 c 0
 330.5 666 342.5 640 342.5 609 c 256
 342.5 578 330.5 552 306.5 531 c 0
 282.5 510 254.5 500 223.5 500 c 1
EndSplineSet
Validated: 1
EndChar

StartChar: uni02BF
Encoding: 703 703 335
Width: 566
GlyphClass: 2
Flags: W
HStem: 500 30<291.936 342.5> 688 30<291.936 342.5>
VStem: 223.5 35<559.197 658.803>
LayerCount: 2
Fore
SplineSet
223.5 609 m 256
 223.5 640 235.5 666 259.5 687 c 0
 283.5 708 311.5 718 342.5 718 c 1
 342.5 688 l 1
 318.5 688 298.5 681 282.5 666 c 0
 266.5 651 258.5 632 258.5 609 c 256
 258.5 586 266.5 567 282.5 552 c 0
 298.5 537 318.5 530 342.5 530 c 1
 342.5 500 l 1
 311.5 500 283.5 510 259.5 531 c 0
 235.5 552 223.5 578 223.5 609 c 256
EndSplineSet
Validated: 1
EndChar

StartChar: acutecomb
Encoding: 769 769 337
Width: 0
GlyphClass: 4
Flags: W
HStem: 493 205
VStem: -287 169
AnchorPoint: "TopMark" -262 738 basemark 0
AnchorPoint: "TopMark" -262 493 mark 0
AnchorPoint: "Top" -262 493 mark 0
LayerCount: 2
Fore
SplineSet
-146 698 m 0
 -127 698 -118 686 -118 662 c 0
 -118 644 -127 627 -146 611 c 2
 -274 493 l 1
 -287 506 l 1
 -195 661 l 2
 -180 686 -163 698 -146 698 c 0
EndSplineSet
Validated: 1
Colour: ffff
EndChar

StartChar: uni0304
Encoding: 772 772 340
Width: 42
GlyphClass: 4
Flags: W
HStem: 569 43<-419 -117>
VStem: -419 302<569 612>
AnchorPoint: "GreekTopMarkSunken" -262 638 basemark 0
AnchorPoint: "GreekTopMark" -262 658 basemark 0
AnchorPoint: "TopMark" -262 658 basemark 0
AnchorPoint: "TopMark" -262 505 mark 0
AnchorPoint: "GreekTop" -262 505 mark 0
AnchorPoint: "Top" -262 505 mark 0
LayerCount: 2
Fore
SplineSet
-419 612 m 5
 -117 612 l 5
 -117 569 l 5
 -419 569 l 5
 -419 612 l 5
EndSplineSet
Validated: 1
Colour: ffff
EndChar

StartChar: uni0305
Encoding: 773 773 341
Width: 0
GlyphClass: 2
Flags: W
HStem: 819 43<-520 0>
LayerCount: 2
Fore
SplineSet
-520 862 m 1
 0 862 l 1
 0 819 l 1
 -520 819 l 1
 -520 862 l 1
EndSplineSet
Validated: 1
Colour: ffff
EndChar

StartChar: uni0308
Encoding: 776 776 344
Width: 34
GlyphClass: 4
Flags: W
HStem: 535 121<-390.436 -304.565 -185.435 -99.564>
VStem: -408 121<552.565 638.436> -203 121<552.565 638.436>
AnchorPoint: "TopMark" -245 700 basemark 0
AnchorPoint: "TopMark" -245 499 mark 0
AnchorPoint: "Top" -245 499 mark 0
LayerCount: 2
Fore
SplineSet
-142 656 m 260
 -125 656 -111 651 -99 639 c 4
 -87 627 -82 613 -82 596 c 260
 -82 579 -87 564 -99 552 c 4
 -111 540 -125 535 -142 535 c 260
 -159 535 -174 540 -186 552 c 4
 -198 564 -203 579 -203 596 c 260
 -203 613 -198 627 -186 639 c 4
 -174 651 -159 656 -142 656 c 260
-348 656 m 260
 -331 656 -316 651 -304 639 c 4
 -292 627 -287 613 -287 596 c 260
 -287 579 -292 564 -304 552 c 4
 -316 540 -331 535 -348 535 c 260
 -365 535 -379 540 -391 552 c 4
 -403 564 -408 579 -408 596 c 260
 -408 613 -403 627 -391 639 c 4
 -379 651 -365 656 -348 656 c 260
EndSplineSet
Validated: 1
Colour: ffff
EndChar

StartChar: uni0324
Encoding: 804 804 356
Width: 34
GlyphClass: 4
Flags: W
HStem: -213 121<-390.436 -304.565 -185.435 -99.564>
VStem: -408 121<-195.435 -109.564> -203 121<-195.435 -109.564>
AnchorPoint: "Bottom" -245 8 mark 0
LayerCount: 2
Fore
SplineSet
-142 -92 m 256
 -125 -92 -111 -97 -99 -109 c 0
 -87 -121 -82 -135 -82 -152 c 256
 -82 -169 -87 -184 -99 -196 c 0
 -111 -208 -125 -213 -142 -213 c 256
 -159 -213 -174 -208 -186 -196 c 0
 -198 -184 -203 -169 -203 -152 c 256
 -203 -135 -198 -121 -186 -109 c 0
 -174 -97 -159 -92 -142 -92 c 256
-348 -92 m 256
 -331 -92 -316 -97 -304 -109 c 0
 -292 -121 -287 -135 -287 -152 c 256
 -287 -169 -292 -184 -304 -196 c 0
 -316 -208 -331 -213 -348 -213 c 256
 -365 -213 -379 -208 -391 -196 c 0
 -403 -184 -408 -169 -408 -152 c 256
 -408 -135 -403 -121 -391 -109 c 0
 -379 -97 -365 -92 -348 -92 c 256
EndSplineSet
Validated: 1
Colour: ffff
EndChar

StartChar: uni0327
Encoding: 807 807 359
Width: 0
GlyphClass: 4
Flags: W
HStem: -214 31<-334.53 -246.531>
VStem: -232 69<-172.738 -89.6255>
DStem2: -315 -73 -275 -54 0.331486 0.94346<31.1852 78.4347>
AnchorPoint: "Bottom" -262 1 mark 0
LayerCount: 2
Fore
SplineSet
-163 -143 m 0
 -163 -194.490371516 -220.382372326 -214 -280 -214 c 0
 -314.044600115 -214 -350.501667272 -192.498332728 -368 -175 c 1
 -356 -159 l 1
 -341.381444887 -171.530190097 -321.582536999 -183 -294 -183 c 0
 -259.260549823 -183 -232 -167.55697113 -232 -133 c 0
 -232 -116 -235 -104 -242 -96 c 0
 -256.491629363 -80.9718116789 -291.625 -75.6 -315 -73 c 1
 -289 1 l 1
 -256 1 l 1
 -275 -54 l 1
 -255 -58 l 2
 -206.547656709 -68.0246227499 -163 -89.9020618958 -163 -143 c 0
EndSplineSet
Validated: 1
Colour: ffff
EndChar

StartChar: uni0331
Encoding: 817 817 366
Width: 42
GlyphClass: 4
Flags: W
HStem: -179 43<-412 -110>
VStem: -412 302<-179 -136>
AnchorPoint: "Bottom" -262 2 mark 0
LayerCount: 2
Fore
SplineSet
-412 -136 m 5
 -110 -136 l 5
 -110 -179 l 5
 -412 -179 l 5
 -412 -136 l 5
EndSplineSet
Validated: 1
Colour: ffff
EndChar

StartChar: uni0333
Encoding: 819 819 368
Width: 0
GlyphClass: 2
Flags: W
HStem: -275 45<-556 -36> -161 45<-556 -36>
LayerCount: 2
Fore
SplineSet
-556 -275 m 5
 -556 -230 l 5
 -36 -230 l 5
 -36 -275 l 5
 -556 -275 l 5
-556 -161 m 5
 -556 -116 l 5
 -36 -116 l 5
 -36 -161 l 5
 -556 -161 l 5
EndSplineSet
Validated: 1
Colour: ffff
EndChar

StartChar: uni0343
Encoding: 835 835 371
Width: 2
GlyphClass: 4
Flags: W
HStem: 633 97<-298.6 -228.172>
VStem: -228 32<559.52 632.886>
AnchorPoint: "GreekTopMarkSunken" -262 495 mark 0
AnchorPoint: "GreekTopSunken" -262 495 mark 0
LayerCount: 2
Fore
SplineSet
-273 730 m 0
 -251 730 -233 720 -218 700 c 0
 -203 680 -196 656 -196 629 c 0
 -196 572 -222 527 -273 495 c 1
 -288 512 l 1
 -248 538 -228 570 -228 608 c 0
 -228 625 -233 633 -244 633 c 0
 -249 633 -255 631 -263 626 c 0
 -271 622 -278 620 -284 620 c 0
 -297 620 -308 624 -316 632 c 0
 -325 640 -330 654 -330 671 c 0
 -330 689 -325 703 -314 714 c 0
 -303 725 -289 730 -273 730 c 0
EndSplineSet
Validated: 1
Colour: ffff
EndChar

StartChar: uniEFED
Encoding: 61421 61421 832
Width: 566
GlyphClass: 2
Flags: W
HStem: 798 104<246.47 319.53>
VStem: 231 104<813.47 886.53>
LayerCount: 2
Fore
SplineSet
283 798 m 256
 268 798 256 803 246 813 c 0
 236 823 231 835 231 850 c 256
 231 865 236 877 246 887 c 0
 256 897 268 902 283 902 c 256
 298 902 310 897 320 887 c 0
 330 877 335 865 335 850 c 256
 335 835 330 823 320 813 c 0
 310 803 298 798 283 798 c 256
EndSplineSet
Validated: 1
EndChar

StartChar: uniEFEE
Encoding: 61422 61422 833
Width: 566
GlyphClass: 2
Flags: W
HStem: 762 46<215.59 350.4>
VStem: 132 28<878.945 916> 406 28<878.964 916>
LayerCount: 2
Fore
SplineSet
283 762 m 256
 196.575477595 762 132 835.238810657 132 916 c 1
 160 916 l 1
 171.959966999 860.18682067 214.684537581 808 283 808 c 256
 351.30902532 808 394.040286949 860.188005761 406 916 c 5
 434 916 l 1
 434 835.296191492 369.384725452 762 283 762 c 256
EndSplineSet
Validated: 1
EndChar

StartChar: uniEFF3
Encoding: 61427 61427 834
Width: 566
GlyphClass: 2
Flags: W
HStem: 754 24<242.185 323.815> 924 24<239.967 326.033>
VStem: 186 24<810.478 894.286> 356 24<810.478 894.286>
LayerCount: 2
Fore
SplineSet
283 754 m 256
 256 754 233 763 214 782 c 0
 195 801 186 825 186 852 c 0
 186 879 195 901 214 920 c 0
 233 939 256 948 283 948 c 256
 310 948 333 939 352 920 c 0
 371 901 380 879 380 852 c 0
 380 825 371 801 352 782 c 0
 333 763 310 754 283 754 c 256
283 778 m 256
 304 778 321 785 335 799 c 0
 349 813 356 831 356 852 c 0
 356 873 350 890 336 904 c 0
 322 918 304 924 283 924 c 256
 262 924 244 918 230 904 c 0
 216 890 210 873 210 852 c 0
 210 831 217 813 231 799 c 0
 245 785 262 778 283 778 c 256
EndSplineSet
Validated: 1
EndChar

StartChar: uniEFF5
Encoding: 61429 61429 835
Width: 566
GlyphClass: 2
Flags: W
HStem: 810 54<293.106 405.637> 850 54<160.363 272.894>
VStem: 133 22<810 837.482> 411 22<876.518 904>
LayerCount: 2
Fore
SplineSet
353 810 m 0xb0
 332 810 303 817 268 830 c 0
 233 843 207 850 191 850 c 0x70
 172 850 160 837 155 810 c 1
 133 810 l 1xb0
 133 836 140 858 154 876 c 0
 168 894 188 904 213 904 c 0x70
 234 904 263 897 298 884 c 0
 333 871 359 864 375 864 c 0xb0
 394 864 406 877 411 904 c 1
 433 904 l 1x70
 433 878 426 856 412 838 c 0
 398 820 378 810 353 810 c 0xb0
EndSplineSet
Validated: 1
EndChar

StartChar: uniEFF7
Encoding: 61431 61431 836
Width: 566
GlyphClass: 2
Flags: W
HStem: 762 158
VStem: 125 316
LayerCount: 2
Fore
SplineSet
303 920 m 1
 334 860 380 813 441 778 c 1
 431 762 l 1
 414 768 390 780 360 800 c 0
 330 820 304 839 283 858 c 1
 262 839 236 820 206 800 c 0
 176 780 152 768 135 762 c 1
 125 778 l 1
 186 813 232 860 263 920 c 1
 303 920 l 1
EndSplineSet
Validated: 1
EndChar

StartChar: uniF6C3
Encoding: 63171 63171 837
Width: 566
GlyphClass: 2
Flags: W
HStem: -238 21G<233 255.5> -126 86<244.424 289.81>
VStem: 298 37<-172.222 -96.5>
LayerCount: 2
Fore
SplineSet
231 -85 m 0
 231 -71 235 -60 244 -52 c 0
 253 -44 265 -40 278 -40 c 0
 295 -40 310 -46 320 -59 c 0
 330 -72 335 -87 335 -106 c 0
 335 -135 326 -161 308 -186 c 0
 290 -211 268 -228 243 -238 c 1
 233 -227 l 1
 250 -219 265 -208 278 -194 c 0
 291 -180 298 -165 298 -152 c 0
 298 -141 295 -133 290 -130 c 0
 286 -127 278 -126 266 -126 c 0
 255 -126 246 -122 240 -113 c 0
 234 -104 231 -95 231 -85 c 0
EndSplineSet
Validated: 1
EndChar

StartChar: uniF6C9
Encoding: 63177 63177 838
Width: 566
GlyphClass: 2
Flags: W
HStem: 762 176
VStem: 198.5 169
LayerCount: 2
Fore
SplineSet
339.5 938 m 0
 358.166992188 938 367.5 927.666992188 367.5 907 c 0
 367.5 891.666992188 358.166992188 877 339.5 863 c 2
 211.5 762 l 1
 198.5 773 l 1
 290.5 906 l 2
 305.833007812 927.333007812 322.166992188 938 339.5 938 c 0
EndSplineSet
Validated: 1
EndChar

StartChar: uniF6CA
Encoding: 63178 63178 839
Width: 566
GlyphClass: 2
Flags: W
HStem: 762 158
VStem: 123 320
LayerCount: 2
Fore
SplineSet
123 906 m 1
 135 920 l 1
 283 824 l 1
 431 920 l 1
 443 906 l 1
 303 762 l 1
 263 762 l 1
 123 906 l 1
EndSplineSet
Validated: 1
EndChar

StartChar: uniF6CE
Encoding: 63182 63182 840
Width: 566
GlyphClass: 2
Flags: W
HStem: 762 176
VStem: 198.5 169
LayerCount: 2
Fore
SplineSet
226.5 938 m 0
 243.833007812 938 260.166992188 927.333007812 275.5 906 c 2
 367.5 773 l 1
 354.5 762 l 1
 226.5 863 l 2
 207.833007812 877 198.5 891.666992188 198.5 907 c 0
 198.5 927.666992188 207.833007812 938 226.5 938 c 0
EndSplineSet
Validated: 1
EndChar

StartChar: uniF6D0
Encoding: 63184 63184 841
Width: 566
GlyphClass: 2
Flags: W
HStem: 822 40<147 419>
VStem: 147 272<822 862>
LayerCount: 2
Fore
SplineSet
147 862 m 1
 419 862 l 1
 419 822 l 1
 147 822 l 1
 147 862 l 1
EndSplineSet
Validated: 1
EndChar

StartChar: uniF6D5
Encoding: 63189 63189 842
Width: 566
GlyphClass: 2
Flags: W
HStem: 614 56<226.333 339.667>
VStem: 151 264
LayerCount: 2
Fore
SplineSet
283 670 m 256
 313 670 340.166992188 653.833007812 364.5 621.5 c 0
 388.833007812 589.166992188 405.666992188 556.666992188 415 524 c 1
 399 518 l 1
 389 542 373.833007812 564 353.5 584 c 0
 333.166992188 604 309.666992188 614 283 614 c 256
 256.333007812 614 232.833007812 604 212.5 584 c 0
 192.166992188 564 177 542 167 518 c 1
 151 524 l 1
 160.333007812 556.666992188 177.166992188 589.166992188 201.5 621.5 c 0
 225.833007812 653.833007812 253 670 283 670 c 256
EndSplineSet
Validated: 1
EndChar

StartChar: uniF6D6
Encoding: 63190 63190 843
Width: 566
GlyphClass: 2
Flags: W
HStem: 508 176
VStem: 130.5 305
LayerCount: 2
Fore
SplineSet
294.5 684 m 0
 311.833007812 684 328.166992188 673.333007812 343.5 652 c 2
 435.5 519 l 1
 422.5 508 l 1
 294.5 609 l 2
 275.833007812 623 266.5 637.666992188 266.5 653 c 0
 266.5 673.666992188 275.833007812 684 294.5 684 c 0
158.5 684 m 0
 175.833007812 684 192.166992188 673.333007812 207.5 652 c 2
 299.5 519 l 1
 286.5 508 l 1
 158.5 609 l 2
 139.833007812 623 130.5 637.666992188 130.5 653 c 0
 130.5 673.666992188 139.833007812 684 158.5 684 c 0
EndSplineSet
Validated: 1
EndChar

StartChar: dotlessi
Encoding: 305 305 845
Width: 566
Flags: W
HStem: 0 38<46 239.871 324.129 520> 418 38<66 239.871>
VStem: 240 84<38 418>
AnchorPoint: "Bottom" 282 0 basechar 0
AnchorPoint: "Top" 279.25 543.417 basechar 0
LayerCount: 2
Fore
SplineSet
46 0 m 5
 46 38 l 5
 218 38 l 6
 233 38 240 45 240 60 c 6
 240 396 l 6
 240 411 233 418 218 418 c 6
 66 418 l 5
 66 456 l 5
 324 456 l 5
 324 60 l 6
 324 45 331 38 346 38 c 6
 520 38 l 5
 520 0 l 5
 46 0 l 5
EndSplineSet
Validated: 1
EndChar

StartChar: oslash
Encoding: 248 248 853
Width: 566
UnlinkRmOvrlpSave: 1
Flags: W
HStem: -12 38<235.397 350.33> 0 21G<56 123.368> 430 38<235.398 350.332> 436 20G<434.632 502>
VStem: 76 102<121.853 334.142> 408 102<121.977 334.028>
DStem2: 56 0 106 0 0.655687 0.755033<32.7843 603.947>
LayerCount: 2
Fore
SplineSet
106 0 m 1x5c
 56 0 l 1
 452 456 l 1
 502 456 l 1
 106 0 l 1x5c
EndSplineSet
Refer: 82 111 N 1 0 0 1 10 0 2
EndChar

StartChar: Oslash
Encoding: 216 216 854
Width: 566
UnlinkRmOvrlpSave: 1
Flags: W
HStem: -18 38<221.46 344.54> 0 21G<41 98.2877> 692 38<221.46 344.54> 710 20G<441.712 499>
VStem: 28 102<181.516 530.484> 436 102<181.516 530.484>
DStem2: 41 0 87 0 0.491507 0.870874<22.6093 838.239>
LayerCount: 2
Fore
SplineSet
87 0 m 5x5c
 41 0 l 5
 453 730 l 5
 499 730 l 5
 87 0 l 5x5c
EndSplineSet
Refer: 50 79 S 1 0 0 1 0 0 2
EndChar

StartChar: brokenbar
Encoding: 166 166 861
Width: 566
Flags: W
HStem: 710 20G<257 309>
VStem: 257 52<-198 150 382 730>
LayerCount: 2
Fore
SplineSet
257 150 m 1
 309 150 l 1
 309 -198 l 1
 257 -198 l 1
 257 150 l 1
257 730 m 5
 309 730 l 5
 309 382 l 5
 257 382 l 5
 257 730 l 5
EndSplineSet
Validated: 1
EndChar

StartChar: section
Encoding: 167 167 862
Width: 566
Flags: W
HStem: -190 30<228.121 325.603> 672 30<238.084 336.596>
VStem: 82 58<255.806 330.667> 138 68<530.075 631.297> 140 82<-141.137 -61.3435> 342 82<574.882 654.58> 358 68<-122.736 -17.8718> 432 52<177.529 254.651>
DStem2: 172 248 156 134 0.78132 -0.624131<-42.1585 223.99> 275 487 209 415 0.781702 -0.623653<-98.2434 -6.68932 12.9184 274.562>
LayerCount: 2
Fore
SplineSet
272 -160 m 0xcb
 318 -160 358 -132 358 -89 c 0
 358 -65 353 -44 343 -27 c 0
 333 -10 314 8 291 26 c 2
 156 134 l 1
 131 155 112 175 100 195 c 0
 88 215 82 240 82 269 c 0xe3
 82 321 124 369 209 415 c 1
 162 453 138 500 138 553 c 0
 138 598 154 634 186 661 c 0
 218 688 256 702 298 702 c 0
 360 702 424 657 424 598 c 0
 424 564 400 540 365 540 c 0
 336 540 309 559 309 584 c 0
 309 607 319 614 333 624 c 0
 339 629 342 635 342 642 c 0
 342 662 326 672 292 672 c 0
 246 672 206 646 206 601 c 0xd5
 206 568 220 535 237 518 c 0
 245 510 258 500 275 487 c 2
 410 379 l 2
 438 358 457 338 468 318 c 0
 479 298 484 272 484 240 c 0
 484 188 442 139 359 91 c 1
 403 48 426 1 426 -48 c 0
 426 -91 409 -127 378 -152 c 0
 347 -177 310 -190 266 -190 c 0
 204 -190 140 -143 140 -84 c 0
 140 -49 163 -28 201 -28 c 0
 228 -28 255 -47 255 -70 c 0
 255 -87 248 -101 233 -111 c 0
 226 -116 222 -122 222 -130 c 0
 222 -152 249 -160 272 -160 c 0xcb
341 113 m 1
 365.973410417 127.753522461 432 168.301972683 432 209 c 0
 432 234.714285714 420.081692995 248.851876215 392 269 c 1
 229 398 l 1
 170.242718447 360.046511628 140 327.674418605 140 302 c 0
 140 280.785714286 149.739130435 262.785714286 172 248 c 2
 315 133 l 1
 341 113 l 1
EndSplineSet
Validated: 1
EndChar

StartChar: degree
Encoding: 176 176 863
Width: 566
Flags: W
HStem: 493 35<358.052 443.95> 665 35<357.973 444.028>
VStem: 297 40<547.296 646.898> 465 40<547.298 646.896>
LayerCount: 2
Fore
SplineSet
401 493 m 0
 343.504817957 493 297 540.133723002 297 598 c 0
 297 654.855382361 343.698646126 700 401 700 c 0
 458.312064396 700 505 654.857854829 505 598 c 0
 505 540.13004273 458.50091964 493 401 493 c 0
401 528 m 0
 436.451523189 528 465 557.62023423 465 597 c 0
 465 636.533998295 437.0475455 665 401 665 c 0
 364.947079167 665 337 636.542971204 337 597 c 0
 337 557.608209198 365.555418019 528 401 528 c 0
EndSplineSet
Validated: 1
EndChar

StartChar: exclamdown
Encoding: 161 161 865
Width: 566
Flags: W
HStem: -238 21G<250 298> 344 144<231.658 334.342>
VStem: 202 144<-223.217 -28.0177> 211 144<364.658 467.342>
LayerCount: 2
Fore
SplineSet
272 300 m 5xe0
 296 300 l 5
 312 100 l 6
 314 74 320 31 330 -28 c 4
 340 -87 346 -133 346 -166 c 4
 346 -214 322 -238 274 -238 c 260
 226 -238 202 -214 202 -166 c 4
 202 -133 210 -87 224 -28 c 4
 238 31 247 74 250 100 c 6
 272 300 l 5xe0
283 488 m 260
 304 488 321 482 335 468 c 4
 349 454 355 437 355 416 c 260
 355 395 349 378 335 364 c 4
 321 350 304 344 283 344 c 260
 262 344 245 350 231 364 c 4
 217 378 211 395 211 416 c 260xd0
 211 437 217 454 231 468 c 4
 245 482 262 488 283 488 c 260
EndSplineSet
Validated: 1
EndChar

StartChar: cent
Encoding: 162 162 866
Width: 566
UnlinkRmOvrlpSave: 1
Flags: W
HStem: -12 38<229.357 396.466> 262 105<409.029 457.494> 432 36<232.565 427.214>
VStem: 66 102<119.571 339.501> 273 52<-138 598> 458 56<320 408.794> 478 35<104.767 152>
LayerCount: 2
Fore
SplineSet
273 598 m 5xf8
 325 598 l 5
 325 -138 l 1
 273 -138 l 1
 273 598 l 5xf8
293 -12 m 0
 220 -12 164 12 125 58 c 0
 86 104 66 161 66 228 c 256
 66 295 85 352 125 398 c 0
 166.904761905 444 225.571428571 468 301 468 c 0
 431.108374384 468 514 441 514 331 c 0
 514 309 508 292 497 280 c 0
 486 268 472 262 456 262 c 0
 439 262 426 267 415 277 c 0
 404 287 398 299 398 313 c 0
 398 340 412 358 439 367 c 0
 452 370 458 375 458 383 c 0xfc
 458 421.203125 369.195804196 432 305 432 c 0
 184.992248062 432 168 335.719726562 168 228 c 256
 168 127 183 26 298 26 c 0
 401.079427083 26 464.233723958 72.6494140625 478 152 c 1
 513 152 l 1xfa
 495.487043626 41.8798828125 409.109220297 -12 293 -12 c 0
EndSplineSet
EndChar

StartChar: sterling
Encoding: 163 163 867
Width: 566
Flags: W
HStem: -18 66<316.102 474.585> -12 34<64.471 154.512> 122 34<66.0059 153.928> 318 38<296.469 426.282> 352 38<72.6115 202.6> 662 38<346.564 483.059>
VStem: 16 38<31.416 111.547> 203 92<217.229 327 380 555.29> 211 84<144.855 326.991> 493 62<555.5 650.542> 540 18<139.379 163.722>
LayerCount: 2
Fore
SplineSet
217 57 m 1xb720
 196.358974359 31 153.282051282 -12 112 -12 c 0
 60.0816326531 -12 16 13 16 66 c 0
 16 116.625 62.9565217391 156 106 156 c 0
 136.324324324 156 169.324324324 142.551724138 205 117 c 1
 209 143 211 176 211 216 c 0x66a0
 211 241.95620438 209.571428571 284.598540146 206 343 c 1
 171.538461538 349 150.861538462 352 142 352 c 0
 103 352 91 343 66 330 c 1
 52 362 l 1
 73 381 101 390 134 390 c 0
 146.816901408 390 169.492957746 387 204 380 c 1
 203 389 203 406 203 430 c 0
 203 505 221.953846154 570 259 622 c 0
 302 674 353 700 412 700 c 0
 491.584261916 700 555 666.82877176 555 577 c 0
 555 534 537 502 495 502 c 0
 467 502 445 521 445 549 c 0
 445 570 453 585 470 594 c 0
 484 602 493 604 493 623 c 0
 493 649.595582002 453.984626977 662 412 662 c 0
 325.662154253 662 295 597.538271546 295 502 c 2x6f40
 295 364 l 1x6e80
 323 359 343 356 356 356 c 0
 383 356 402 361 418 370 c 2
 432 378 l 1
 446 346 l 1
 427 327 400 318 364 318 c 0
 353 318 330 321 295 327 c 1
 295 272 l 2
 295 200 279 141 247 95 c 1
 299 64 362 48 437 48 c 0
 491.479338843 48 529.785123967 114 540 168 c 1
 558 161 l 1
 537.312849162 42 483.346368715 -18 397 -18 c 0
 357 -18 297 7 217 57 c 1xb720
100 122 m 0
 74.6206896552 122 54 99.2321428571 54 71 c 4
 54 38.3333333333 73.0571428571 22 112 22 c 0
 146.606741573 22 176.02247191 54.328358209 189 79 c 1
 164.326732673 98 140.534653465 122 100 122 c 0
EndSplineSet
Validated: 1
EndChar

StartChar: yen
Encoding: 165 165 869
Width: 566
UnlinkRmOvrlpSave: 1
Flags: W
HStem: 0 38<161 256.119 342.048 437> 181 43<33 533> 310 43<33 533> 674 38<19 82.1781 187.269 252 361 430.962 493.289 547>
VStem: 257 84<38.5367 324>
DStem2: 320 390 341 347 0.425797 0.904819<0 279.058>
AnchorPoint: "Bottom" 301 0 basechar 0
AnchorPoint: "Top" 303 762 basechar 0
LayerCount: 2
Fore
SplineSet
33 181 m 1
 33 224 l 1
 533 224 l 1
 533 181 l 1
 33 181 l 1
33 310 m 1
 33 353 l 1
 533 353 l 1
 533 310 l 1
 33 310 l 1
207 674 m 2
 192.950519729 674 187.264531608 666.604042575 187.264531608 656.02437972 c 0
 187.264531608 648.463202935 190.168828942 639.275848431 195 630 c 2
 320 390 l 1
 416 594 l 2
 425.928859042 615.098825464 432.139724773 632.877007753 432.139724773 646.275159223 c 0
 432.139724773 663.947957442 421.333524511 674 394 674 c 2
 361 674 l 1
 361 712 l 1
 547 712 l 1
 547 674 l 1
 542 674 l 2
 502.546875 674 484.30017856 652.549141063 462 605 c 2
 341 347 l 1
 341 66 l 2
 341 47 351 38 370 38 c 2
 437 38 l 1
 437 0 l 1
 161 0 l 1
 161 38 l 1
 228 38 l 2
 247 38 257 47 257 65 c 2
 257 324 l 1
 97 633 l 2
 79.3113452978 667.161214394 63 674 38 674 c 2
 19 674 l 1
 19 712 l 1
 252 712 l 1
 252 674 l 1
 207 674 l 2
EndSplineSet
EndChar

StartChar: dieresis
Encoding: 168 168 870
Width: 566
Flags: W
HStem: 535 121<137.564 223.435 342.565 428.436>
VStem: 120 121<552.565 638.436> 325 121<552.565 638.436>
LayerCount: 2
Fore
SplineSet
386 656 m 260
 403 656 417 651 429 639 c 4
 441 627 446 613 446 596 c 260
 446 579 441 564 429 552 c 4
 417 540 403 535 386 535 c 260
 369 535 354 540 342 552 c 4
 330 564 325 579 325 596 c 260
 325 613 330 627 342 639 c 4
 354 651 369 656 386 656 c 260
180 656 m 256
 197 656 212 651 224 639 c 0
 236 627 241 613 241 596 c 256
 241 579 236 564 224 552 c 0
 212 540 197 535 180 535 c 256
 163 535 149 540 137 552 c 0
 125 564 120 579 120 596 c 256
 120 613 125 627 137 639 c 0
 149 651 163 656 180 656 c 256
EndSplineSet
Validated: 1
EndChar

StartChar: copyright
Encoding: 169 169 871
Width: 566
Flags: W
HStem: 72 34<200.062 365.938> 168 33<249.339 341.745> 502 29<252.705 331.288> 606 34<200.062 365.938>
VStem: 8 36<265.414 446.586> 136 74<252.944 446.131> 382 22<298.454 302 400 403.523 505.139 531> 522 36<265.414 446.586>
LayerCount: 2
Fore
SplineSet
44 356 m 0
 44 221.018920561 149.40870788 106 283 106 c 0
 416.59129212 106 522 221.018920561 522 356 c 0
 522 490.981079439 416.59129212 606 283 606 c 0
 149.40870788 606 44 490.981079439 44 356 c 0
8 356 m 0
 8 512.049593705 127.66532588 640 283 640 c 0
 438.33467412 640 558 512.049593705 558 356 c 0
 558 199.950406295 438.33467412 72 283 72 c 0
 127.66532588 72 8 199.950406295 8 356 c 0
370 505 m 0
 375.653026163 505 382 517.154867807 382 527 c 2
 382 531 l 1
 404 531 l 1
 404 400 l 1
 382.447606234 400 l 1
 382.02820141 403.523000528 l 2
 377.164608005 444.377185123 336.74286654 502 294 502 c 0
 239.755264682 502 210 450.981145996 210 342 c 0
 210 277.647478219 229.264602366 201 292 201 c 0
 350.133715979 201 375.111603767 246.214310851 381.025541493 298.454094094 c 2
 381.426964803 302 l 1
 410.249877267 302 l 1
 409.992589239 297.754747544 l 2
 405.921170952 230.576345815 365.818827776 168 292 168 c 0
 196.318260156 168 136 249.400327586 136 342 c 0
 136 447.131483017 190.021670602 536 294 536 c 0
 319.837155078 536 334.463077865 525.060205702 346.013018618 516.353815899 c 0
 354.736274539 509.778192004 361.342291366 505 370 505 c 0
EndSplineSet
Validated: 1
EndChar

StartChar: guillemotleft
Encoding: 171 171 872
Width: 566
Flags: W
VStem: 149 66<133.205 322.795> 306 58<131.302 324.698>
DStem2: 395 414 416 393 0.707107 0.707107<-55.5671 4.24264> 419 60 395 42 0.707107 -0.707107<-59.8098 0>
LayerCount: 2
Fore
SplineSet
306 228 m 0
 306 270 316 305 334 338 c 0
 352 370 373 397 395 414 c 2
 398 417 l 1
 419 396 l 1
 416 393 l 2
 382 349 364 294 364 228 c 0
 364 162 382 107 416 63 c 2
 419 60 l 1
 398 39 l 1
 395 42 l 2
 373 59 352 86 334 118 c 0
 316 151 306 186 306 228 c 0
149 228 m 0
 149 272 161 313 186 349 c 0
 210 384 236 413 267 432 c 2
 271 434 l 1
 292 413 l 1
 288 409 l 2
 239 365 215 306 215 228 c 0
 215 150 239 91 288 47 c 2
 292 43 l 1
 271 22 l 1
 267 24 l 2
 236 43 210 72 186 107 c 0
 161 143 149 184 149 228 c 0
EndSplineSet
Validated: 1
EndChar

StartChar: guillemotright
Encoding: 187 187 873
Width: 566
Flags: W
VStem: 202 58<131.302 324.698> 351 66<133.205 322.795>
DStem2: 168 417 147 396 0.707107 -0.707107<0 59.8098> 147 60 168 39 0.707107 0.707107<0 59.8098>
LayerCount: 2
Fore
SplineSet
417 228 m 0
 417 184 405 143 380 107 c 0
 356 72 330 43 299 24 c 2
 295 22 l 1
 274 43 l 1
 278 47 l 2
 327 91 351 150 351 228 c 0
 351 306 327 365 278 409 c 2
 274 413 l 1
 295 434 l 1
 299 432 l 2
 330 413 356 384 380 349 c 0
 405 313 417 272 417 228 c 0
260 228 m 0
 260 186 250 151 232 118 c 0
 214 86 193 59 171 42 c 2
 168 39 l 1
 147 60 l 1
 150 63 l 2
 184 107 202 162 202 228 c 0
 202 294 184 349 150 393 c 2
 147 396 l 1
 168 417 l 1
 171 414 l 2
 193 397 214 370 232 338 c 0
 250 305 260 270 260 228 c 0
EndSplineSet
Validated: 1
EndChar

StartChar: questiondown
Encoding: 191 191 874
Width: 566
Flags: W
HStem: -238 32<243.257 375.356> -102 99<360.472 424.593> 254 32<242.633 331.832> 324 144<224.658 327.342>
VStem: 90 102<-162.272 -17.3811> 200 26<169.176 234.123> 204 144<344.658 447.342> 342 36<159.956 244.987> 428 48<-160.985 -79>
LayerCount: 2
Fore
SplineSet
298 -238 m 0xfd80
 240 -238 190 -225 150 -199 c 0
 110 -173 90 -137 90 -91 c 0
 90 -71 93 -52 102 -34 c 0
 111 -16 124 1 142 17 c 0
 160 33 174 45 188 55 c 0
 202 65 221 78 246 93 c 0
 309 132 342 171 342 208 c 0
 342 239 323 254 286 254 c 0
 269 254 253 249 242 238 c 0
 231 227 226 212 226 194 c 0
 226 184 227 177 230 171 c 1
 202 164 l 1
 200 175 200 185 200 196 c 0
 200 221 208 243 226 260 c 0
 244 277 265 286 286 286 c 0
 313 286 335 280 352 266 c 0
 369 252 378 233 378 208 c 0
 378 189 374 173 366 159 c 0
 358 145 347 129 330 112 c 2
 252 33 l 2
 232 12 216 -7 206 -25 c 0
 196 -43 192 -64 192 -88 c 0
 192 -122 202 -151 222 -173 c 0
 242 -195 269 -206 308 -206 c 0
 339 -206 368 -199 392 -184 c 0
 416 -169 428 -152 428 -133 c 0
 428 -119 426 -110 422 -106 c 0
 419 -104 415 -102 412 -102 c 0
 407 -102 404 -102 402 -103 c 0
 397 -105 392 -105 384 -105 c 0
 372 -105 363 -101 356 -92 c 0
 349 -83 346 -72 346 -59 c 0
 346 -43 350 -29 360 -19 c 0
 370 -9 385 -3 404 -3 c 0
 424 -3 440 -11 454 -27 c 0
 468 -43 476 -65 476 -93 c 0
 476 -134 457 -168 420 -196 c 0
 383 -224 343 -238 298 -238 c 0xfd80
276 468 m 256
 297 468 314 462 328 448 c 0
 342 434 348 417 348 396 c 256
 348 375 342 358 328 344 c 0
 314 330 297 324 276 324 c 256
 255 324 238 330 224 344 c 0
 210 358 204 375 204 396 c 256xfa80
 204 417 210 434 224 448 c 0
 238 462 255 468 276 468 c 256
EndSplineSet
Validated: 1
EndChar

StartChar: macron
Encoding: 175 175 875
Width: 566
Flags: W
HStem: 241 43<33 533>
LayerCount: 2
Fore
SplineSet
33 241 m 5
 33 284 l 5
 533 284 l 5
 533 241 l 5
 33 241 l 5
EndSplineSet
Validated: 1
EndChar

StartChar: multiply
Encoding: 215 215 876
Width: 566
Flags: W
DStem2: 51 564 14 526 0.665435 -0.746456<3.74423 350.699 405.937 752.891> 14 2 51 -36 0.665435 0.746456<0 346.955 402.192 749.147>
LayerCount: 2
Fore
SplineSet
51 -36 m 1
 14 2 l 1
 247 264 l 1
 14 526 l 1
 51 564 l 1
 283 301 l 1
 515 564 l 1
 552 526 l 1
 319 264 l 1
 552 2 l 1
 515 -36 l 1
 283 227 l 1
 51 -36 l 1
EndSplineSet
Validated: 1
EndChar

StartChar: cedilla
Encoding: 184 184 877
Width: 566
Flags: W
HStem: -214 31<213.969 301.969>
VStem: 316.5 69<-172.738 -89.6255>
DStem2: 233.5 -73 273.5 -54 0.331486 0.94346<31.1852 78.4347>
AnchorPoint: "Bottom" 286.5 1 mark 0
LayerCount: 2
Fore
SplineSet
385.5 -143 m 0
 385.5 -194.490234375 328.1171875 -214 268.5 -214 c 0
 234.455078125 -214 197.998046875 -192.498046875 180.5 -175 c 1
 192.5 -159 l 1
 207.118164062 -171.530273438 226.916992188 -183 254.5 -183 c 0
 289.239257812 -183 316.5 -167.556640625 316.5 -133 c 0
 316.5 -116 313.5 -104 306.5 -96 c 0
 292.008789062 -80.9716796875 256.875 -75.599609375 233.5 -73 c 1
 259.5 1 l 1
 292.5 1 l 1
 273.5 -54 l 1
 293.5 -58 l 2
 341.952148438 -68.0244140625 385.5 -89.90234375 385.5 -143 c 0
EndSplineSet
Validated: 1
EndChar

StartChar: acute
Encoding: 180 180 878
Width: 566
Flags: W
HStem: 493 205
VStem: 198.5 169
AnchorPoint: "TopMark" 223.5 738 basemark 0
AnchorPoint: "TopMark" 223.5 493 mark 0
AnchorPoint: "Top" 223.5 493 mark 0
LayerCount: 2
Fore
SplineSet
339.5 698 m 0
 358.5 698 367.5 686 367.5 662 c 0
 367.5 644 358.5 627 339.5 611 c 2
 211.5 493 l 1
 198.5 506 l 1
 290.5 661 l 2
 305.5 686 322.5 698 339.5 698 c 0
EndSplineSet
Validated: 1
EndChar

StartChar: logicalnot
Encoding: 172 172 879
Width: 566
Flags: W
HStem: 361 43<53 461>
VStem: 461 52<183 361>
LayerCount: 2
Fore
SplineSet
53 361 m 5
 53 404 l 5
 513 404 l 5
 513 183 l 5
 461 183 l 5
 461 361 l 5
 53 361 l 5
EndSplineSet
Validated: 1
EndChar

StartChar: paragraph
Encoding: 182 182 880
Width: 566
Flags: W
HStem: 669 43<284 394 446 510>
VStem: 64 220<461.008 629.916> 232 52<-156 386> 394 52<-156 669>
LayerCount: 2
Fore
SplineSet
510 712 m 5xb0
 510 669 l 5
 446 669 l 1
 446 -156 l 1
 394 -156 l 1
 394 669 l 1
 284 669 l 1
 284 -156 l 1
 232 -156 l 1
 232 386 l 1xb0
 183.333333333 386 143.166666667 400.5 111.5 429.5 c 0
 79.8333333333 458.5 64 496.666666667 64 544 c 0xd0
 64 592 80 632 112 664 c 0
 144 696 184 712 232 712 c 2
 510 712 l 5xb0
EndSplineSet
Validated: 1
EndChar
